<svg enable-background="new 0 0 1060.4 736.51" height="737" viewBox="0 0 1060.4 736.51" width="1061" xmlns="http://www.w3.org/2000/svg" xmlns:xlink="http://www.w3.org/1999/xlink"><linearGradient id="a" gradientUnits="userSpaceOnUse" x1="914.2945" x2="-738.8964" y1="76.7444" y2="1331.4423"><stop offset=".0856" stop-color="#fffaeb"/><stop offset=".8934" stop-color="#94bded"/></linearGradient><linearGradient id="b" gradientUnits="userSpaceOnUse" x1="54.1147" x2="1001.0773" y1="401.6439" y2="401.6439"><stop offset=".042" stop-color="#1c7e8e"/><stop offset=".99" stop-color="#dbe7de"/></linearGradient><linearGradient id="c" gradientUnits="userSpaceOnUse" x1="532.4285" x2="-47.9638" y1="-150.3892" y2="585.6638"><stop offset=".0718" stop-color="#fff"/><stop offset=".8046" stop-color="#fff9e9" stop-opacity="0"/></linearGradient><linearGradient id="d" gradientUnits="userSpaceOnUse" x1="1289.5352" x2="648.077" y1="-31.7659" y2="714.7598"><stop offset=".2187" stop-color="#fff"/><stop offset=".8046" stop-color="#fff9e9" stop-opacity="0"/></linearGradient><path d="m1060.4 31.241v674.019c0 17.252-13.988 31.25-31.25 31.25h-997.9c-17.253 0-31.25-13.997-31.25-31.25v-674.019c0-17.252 13.997-31.241 31.25-31.241h997.9c4.59 0 8.951.987 12.882 2.77 10.834 4.901 18.368 15.808 18.368 28.471z" fill="url(#a)"/><ellipse cx="56.312" cy="53.993" fill="#ff593b" rx="17.882" ry="17.654"/><ellipse cx="113.057" cy="53.993" fill="#f9e79b" rx="17.882" ry="17.654"/><ellipse cx="169.803" cy="53.993" fill="#1c7e8e" rx="17.882" ry="17.654"/><path d="m61.533 253.309c-.008 0-.014 0-.02 0-2.761-.015-4.989-2.265-4.974-5.025.014-2.739 2.229-4.953 4.96-4.975.256-.01 6.206-.312 15.691-6.02 9.058-5.449 23.215-17.03 39.22-41.252 17.036-25.78 30.047-43.099 42.188-56.154 15.775-16.962 30.098-26.46 43.789-29.038 11.248-2.118 22.125.461 32.328 7.662 11.585 8.178 20.729 17.865 29.573 27.234 19.149 20.287 34.275 36.309 64.8 26.812 47.977-14.927 73.06-.256 93.213 11.532 1.036.606 2.062 1.206 3.079 1.795 9.519 5.513 15.401 1.16 24.979-7.005 5.449-4.645 11.083-9.447 18.248-11.687 11.286-3.525 21.332.222 31.048 3.847 7.193 2.684 14.632 5.459 23.234 5.804 7.595.322 14.195-18.675 19.514-33.924 6.589-18.891 12.813-36.733 24.708-41.115 4.864-1.792 12.117-1.633 19.048 9.311 4.04 6.377 7.473 15.238 11.107 24.619 5.993 15.469 13.451 34.72 23.065 36.781 11.392 2.443 25.436-6.262 41.699-16.342 15.06-9.334 32.129-19.912 52.522-25.521 43.622-11.994 74.116-17.699 99.527 11.178 6.588 7.486 12.341 15.871 17.905 23.98 15.821 23.062 26.357 36.823 42.854 29.49 7.699-3.421 17.311-10.895 27.488-18.807 27.662-21.506 62.087-48.272 97.23-28.188 2.398 1.37 3.23 4.424 1.861 6.821-1.37 2.398-4.424 3.231-6.822 1.86-29.328-16.756-59.506 6.702-86.131 27.401-10.672 8.297-20.752 16.134-29.565 20.051-24.938 11.085-40.303-11.312-55.162-32.972-5.396-7.865-10.975-15.997-17.165-23.032-20.895-23.743-44.378-20.514-89.369-8.141-19.002 5.225-35.42 15.4-49.905 24.378-18.101 11.219-33.734 20.915-49.064 17.619-14.892-3.193-22.721-23.402-30.293-42.945-5.22-13.475-11.717-30.235-17.374-28.16-7.465 2.75-13.707 20.646-18.723 35.026-7.395 21.198-14.379 41.216-29.356 40.622-10.2-.408-18.77-3.605-26.33-6.427-9.248-3.45-16.552-6.178-24.569-3.671-5.215 1.63-9.844 5.575-14.744 9.752-9.078 7.739-20.376 17.371-36.477 8.049-1.03-.597-2.069-1.204-3.118-1.817-19.418-11.357-41.428-24.229-85.194-10.615-36.486 11.351-55.214-8.49-75.042-29.497-8.505-9.011-17.3-18.329-28.067-25.929-8.02-5.661-16.102-7.624-24.711-6.005-26.137 4.922-53.648 41.78-79.484 80.879-33.732 51.053-61.765 51.761-63.219 51.761z" fill="#71dba3"/><path d="m156.831 391.58c-9.145 0-18.823-4.864-30.305-15.197-30.915-27.824-66.063-38.532-66.414-38.637-2.645-.789-4.151-3.573-3.363-6.219s3.568-4.149 6.214-3.366c1.52.451 37.591 11.393 70.253 40.788 9.988 8.989 17.784 13.017 24.52 12.604 10.125-.585 19.725-11.475 33.012-26.546 2.629-2.982 5.348-6.066 8.276-9.307 3.347-3.703 6.43-7.183 9.412-10.549 22.84-25.778 36.627-41.339 62.542-32.699 14.052 4.683 20.678-5.742 30.327-23.141 8.079-14.568 17.237-31.081 35.318-28.587 33.589 4.633 48.543 23.626 72.084 56.797 5.098 7.183 10.134 15.383 15.466 24.064 13.241 21.557 28.248 45.989 41.355 47.404 3.913.429 7.737-1.377 11.699-5.498 13.655-14.201 30.593-22.876 47.694-24.427 17.067-1.552 33.129 3.983 45.231 15.574 2.654 2.543 4.924 3.638 6.746 3.255 7.8-1.639 17.296-24.553 27.35-48.812 6.324-15.258 13.491-32.553 22.355-50.586 24.621-50.09 40.751-80.983 61.253-84.805 8.355-1.554 16.523 1.479 24.975 9.281 9.071 8.374 15.425 11.871 19.994 10.995 9.514-1.816 19.935-23.492 34.359-53.492 25.282-52.587 42.722-75.619 60.197-79.499 7.484-1.664 14.727.319 21.531 5.886 11.375 9.308 14.391 22.383 17.307 35.026 3.806 16.502 7.741 33.566 29.421 47.259 42.195 26.649 64.266 62.696 78.87 86.549 13.098 21.392 23.095 23.251 23.195 23.267-.114-.019-.174-.02-.174-.02l-.906 9.959c-1.464-.133-14.765-2.051-30.643-27.984-14.12-23.061-35.458-57.911-75.682-83.315-25.159-15.891-29.763-35.854-33.825-53.467-2.771-12.014-5.164-22.39-13.895-29.533-4.431-3.626-8.573-4.855-13.032-3.863-17.604 3.908-37.759 41.637-53.352 74.069-18.743 38.984-27.614 56.332-41.496 58.981-10.265 1.965-20.244-5.709-28.651-13.47-5.973-5.514-11.324-7.732-16.36-6.798-16.613 3.097-34.827 40.153-54.111 79.385-8.723 17.747-15.825 34.884-22.091 50.004-12.989 31.341-21.57 52.046-34.532 54.769-5.248 1.105-10.536-.854-15.719-5.818-9.983-9.562-23.267-14.118-37.411-12.838-14.703 1.333-29.402 8.934-41.388 21.399-6.165 6.411-12.89 9.276-19.98 8.508-17.987-1.94-33.653-27.446-48.804-52.112-5.243-8.536-10.195-16.599-15.101-23.511-24.413-34.4-37.154-48.796-65.295-52.678-10.535-1.453-16.55 7.92-25.207 23.53-8.728 15.738-19.592 35.328-42.235 27.777-18.697-6.229-27.935 2.803-51.895 29.845-2.998 3.384-6.098 6.883-9.477 10.622-2.887 3.194-5.585 6.255-8.195 9.215-14.888 16.889-25.646 29.091-39.937 29.916-.491.031-.985.046-1.48.046z" fill="#ff7eb8"/><path d="m59.707 616.329c-1.204 0-2.412-.433-3.371-1.309-2.039-1.863-2.181-5.025-.318-7.064.454-.496 45.58-49.931 66.67-77.348 11.213-14.577 21.549-22.047 32.528-23.508 9.624-1.28 19.129 2.032 30.82 10.74 3.294 2.454 5.544 2.42 6.951 2.182 7.767-1.319 17.174-15.242 27.133-29.982 4.754-7.035 9.669-14.311 15.241-21.654 12.71-16.755 24.07-20.218 35.055-23.567 10.768-3.282 21.904-6.677 37.19-22.982 15.167-16.178 29.297-29.633 48.656-30.42 17.973-.725 39.441 9.485 71.791 34.157 29.977 22.864 60.892 36.576 89.404 39.655 27.368 2.957 51.41-3.994 69.527-20.098 9.916-8.813 20.324-19.562 30.391-29.955 31.162-32.174 60.595-62.562 83.149-46.59 28.163 19.947 50.117 21.014 71.185 3.459 11.11-9.259 24.401-13.037 38.441-10.925 26.141 3.933 54.373 28.136 81.643 69.993 25.904 39.761 55.336 63.036 78.76 62.182 9.747-.343 17.407-5.04 22.154-13.584 1.341-2.413 4.385-3.281 6.799-1.942 2.414 1.342 3.284 4.386 1.943 6.8-6.448 11.605-17.295 18.255-30.544 18.721-12.942.447-47.369-5.136-87.49-66.717-32.427-49.772-58.549-63.126-74.752-65.563-11.292-1.694-21.572 1.235-30.552 8.718-24.474 20.395-51.743 19.418-83.367-2.98-15.556-11.018-43.328 17.656-70.185 45.387-10.194 10.526-20.735 21.41-30.93 30.473-20.283 18.028-46.992 25.831-77.244 22.565-30.326-3.275-62.967-17.676-94.395-41.646-30.339-23.139-49.873-32.706-65.32-32.117-14.161.576-25.604 10.028-41.767 27.269-17.112 18.253-30.105 22.214-41.569 25.708-10.755 3.279-19.25 5.868-30.005 20.045-5.406 7.126-10.243 14.286-14.921 21.21-12.158 17.994-21.761 32.207-33.746 34.242-4.974.841-9.885-.509-14.599-4.021-21.968-16.362-34.327-8.812-49.448 10.846-21.348 27.752-66.758 77.497-67.214 77.996-.987 1.076-2.338 1.624-3.694 1.624z" fill="#ff593b"/><path d="m997.077 690.062h-938.962c-2.209 0-4-1.791-4-4v-568.837c0-2.209 1.791-4 4-4s4 1.791 4 4v564.837h934.963c2.209 0 4 1.791 4 4s-1.791 4-4.001 4z" fill="url(#b)"/><path d="m595.118 0-595.118 696.529v-401.585l252.01-294.944z" fill="url(#c)"/><path d="m1060.4 52.562v356.739l-274.336 327.209h-299.105z" fill="url(#d)"/></svg>