<svg xmlns="http://www.w3.org/2000/svg" width="335" height="369" version="1.1"><path fill="#000" d="M0 0 C110.55 0 221.1 0 335 0 C335 121.77 335 243.54 335 369 C224.45 369 113.9 369 0 369 C0 247.23 0 125.46 0 0 Z" transform="translate(0,0)"/><path fill="#FEFBBB" d="M0 0 C5.28 0 10.56 0 16 0 C16 2.64 16 5.28 16 8 C18.64 8 21.28 8 24 8 C24 10.64 24 13.28 24 16 C26.64 16 29.28 16 32 16 C32 18.64 32 21.28 32 24 C34.64 24 37.28 24 40 24 C40 26.64 40 29.28 40 32 C42.64 32 45.28 32 48 32 C48 37.28 48 42.56 48 48 C50.64 48 53.28 48 56 48 C56 50.64 56 53.28 56 56 C66.56 56 77.12 56 88 56 C88 58.64 88 61.28 88 64 C93.28 64 98.56 64 104 64 C104 66.64 104 69.28 104 72 C109.28 72 114.56 72 120 72 C120 74.64 120 77.28 120 80 C122.64 80 125.28 80 128 80 C128 82.64 128 85.28 128 88 C130.64 88 133.28 88 136 88 C136 93.28 136 98.56 136 104 C133.36 104 130.72 104 128 104 C128 106.64 128 109.28 128 112 C125.36 112 122.72 112 120 112 C120 114.64 120 117.28 120 120 C117.36 120 114.72 120 112 120 C112 122.64 112 125.28 112 128 C109.36 128 106.72 128 104 128 C104 130.64 104 133.28 104 136 C98.72 136 93.44 136 88 136 C88 141.28 88 146.56 88 152 C90.64 152 93.28 152 96 152 C96 167.84 96 183.68 96 200 C93.36 200 90.72 200 88 200 C88 205.28 88 210.56 88 216 C85.36 216 82.72 216 80 216 C80 218.64 80 221.28 80 224 C72.08 224 64.16 224 56 224 C56 221.36 56 218.72 56 216 C50.72 216 45.44 216 40 216 C40 213.36 40 210.72 40 208 C37.36 208 34.72 208 32 208 C32 205.36 32 202.72 32 200 C29.36 200 26.72 200 24 200 C24 197.36 24 194.72 24 192 C21.36 192 18.72 192 16 192 C16 189.36 16 186.72 16 184 C10.72 184 5.44 184 0 184 C0 186.64 0 189.28 0 192 C-2.64 192 -5.28 192 -8 192 C-8 194.64 -8 197.28 -8 200 C-10.64 200 -13.28 200 -16 200 C-16 202.64 -16 205.28 -16 208 C-18.64 208 -21.28 208 -24 208 C-24 210.64 -24 213.28 -24 216 C-29.28 216 -34.56 216 -40 216 C-40 218.64 -40 221.28 -40 224 C-47.92 224 -55.84 224 -64 224 C-64 221.36 -64 218.72 -64 216 C-66.64 216 -69.28 216 -72 216 C-72 210.72 -72 205.44 -72 200 C-74.64 200 -77.28 200 -80 200 C-80 184.16 -80 168.32 -80 152 C-77.36 152 -74.72 152 -72 152 C-72 146.72 -72 141.44 -72 136 C-77.28 136 -82.56 136 -88 136 C-88 133.36 -88 130.72 -88 128 C-90.64 128 -93.28 128 -96 128 C-96 125.36 -96 122.72 -96 120 C-98.64 120 -101.28 120 -104 120 C-104 117.36 -104 114.72 -104 112 C-106.64 112 -109.28 112 -112 112 C-112 109.36 -112 106.72 -112 104 C-114.64 104 -117.28 104 -120 104 C-120 98.72 -120 93.44 -120 88 C-117.36 88 -114.72 88 -112 88 C-112 85.36 -112 82.72 -112 80 C-109.36 80 -106.72 80 -104 80 C-104 77.36 -104 74.72 -104 72 C-98.72 72 -93.44 72 -88 72 C-88 69.36 -88 66.72 -88 64 C-82.72 64 -77.44 64 -72 64 C-72 61.36 -72 58.72 -72 56 C-61.44 56 -50.88 56 -40 56 C-40 53.36 -40 50.72 -40 48 C-37.36 48 -34.72 48 -32 48 C-32 42.72 -32 37.44 -32 32 C-29.36 32 -26.72 32 -24 32 C-24 29.36 -24 26.72 -24 24 C-21.36 24 -18.72 24 -16 24 C-16 21.36 -16 18.72 -16 16 C-13.36 16 -10.72 16 -8 16 C-8 13.36 -8 10.72 -8 8 C-5.36 8 -2.72 8 0 8 C0 5.36 0 2.72 0 0 Z" transform="translate(162,75)"/><path fill="#FEFBDA" d="M0 0 C0 2.64 0 5.28 0 8 C2.64 8 5.28 8 8 8 C8 13.28 8 18.56 8 24 C5.36 24 2.72 24 0 24 C0 26.64 0 29.28 0 32 C-2.64 32 -5.28 32 -8 32 C-8 34.64 -8 37.28 -8 40 C-10.64 40 -13.28 40 -16 40 C-16 42.64 -16 45.28 -16 48 C-18.64 48 -21.28 48 -24 48 C-24 50.64 -24 53.28 -24 56 C-29.28 56 -34.56 56 -40 56 C-40 61.28 -40 66.56 -40 72 C-37.36 72 -34.72 72 -32 72 C-32 87.84 -32 103.68 -32 120 C-40.415 120.495 -40.415 120.495 -49 121 C-49.66 118.69 -50.32 116.38 -51 114 C-52.65 115.32 -54.3 116.64 -56 118 C-55.3125 115.625 -55.3125 115.625 -54 113 C-52.35636866 112.27840576 -50.68949614 111.60648579 -49 111 C-47.88088288 107.64264863 -47.88634414 105.11794614 -47.90234375 101.58203125 C-47.90556641 100.32841797 -47.90878906 99.07480469 -47.91210938 97.78320312 C-47.92048828 96.47287109 -47.92886719 95.16253906 -47.9375 93.8125 C-47.94251683 92.47721519 -47.94707941 91.14192859 -47.95117188 89.80664062 C-47.96297305 86.53771527 -47.97943703 83.26888009 -48 80 C-49.134375 80.020625 -50.26875 80.04125 -51.4375 80.0625 C-55 80 -55 80 -56 79 C-56.10008391 76.88992912 -56.13081127 74.77650467 -56.1328125 72.6640625 C-56.13410156 71.37242187 -56.13539063 70.08078125 -56.13671875 68.75 C-56.13462402 68.07324219 -56.1325293 67.39648438 -56.13037109 66.69921875 C-56.12504026 64.64054936 -56.13030701 62.5820999 -56.13671875 60.5234375 C-56.13542969 59.22921875 -56.13414062 57.935 -56.1328125 56.6015625 C-56.13168457 55.40869629 -56.13055664 54.21583008 -56.12939453 52.98681641 C-56 50 -56 50 -55 47 C-53.02 47 -51.04 47 -49 47 C-48.87625 46.05125 -48.7525 45.1025 -48.625 44.125 C-48 41 -48 41 -46 39 C-42.7421875 38.8046875 -42.7421875 38.8046875 -38.875 38.875 C-36.95300781 38.90207031 -36.95300781 38.90207031 -34.9921875 38.9296875 C-34.00476563 38.95289063 -33.01734375 38.97609375 -32 39 C-32 37.02 -32 35.04 -32 33 C-31.44570313 32.84144531 -30.89140625 32.68289062 -30.3203125 32.51953125 C-25.57975367 31.14002212 -25.57975367 31.14002212 -22.625 27.4375 C-22.41875 26.633125 -22.2125 25.82875 -22 25 C-21.34 24.34 -20.68 23.68 -20 23 C-18.68 23 -17.36 23 -16 23 C-16.495 15.575 -16.495 15.575 -17 8 C-21.95 8 -26.9 8 -32 8 C-33.04449911 4.86650268 -32.93423645 4.01031744 -32 1 C-31.34 1 -30.68 1 -30 1 C-30.33 2.98 -30.66 4.96 -31 7 C-27.7 6.67 -24.4 6.34 -21 6 C-20.67 4.35 -20.34 2.7 -20 1 C-20.99 0.67 -21.98 0.34 -23 0 C-15.16992004 -0.79773542 -7.80363479 -1.14500285 0 0 Z" transform="translate(290,155)"/><path fill="#FEFDF3" d="M0 0 C0.95310059 0.01047363 1.90620117 0.02094727 2.88818359 0.03173828 C4.43505859 0.04140625 4.43505859 0.04140625 6.01318359 0.05126953 C7.63353516 0.07640625 7.63353516 0.07640625 9.28662109 0.10205078 C10.37458984 0.11107422 11.46255859 0.12009766 12.58349609 0.12939453 C15.27642261 0.15301669 17.96891365 0.18595522 20.66162109 0.22705078 C21.15662109 3.69205078 21.15662109 3.69205078 21.66162109 7.22705078 C22.65162109 6.89705078 23.64162109 6.56705078 24.66162109 6.22705078 C25.65162109 6.88705078 26.64162109 7.54705078 27.66162109 8.22705078 C28.00219727 10.74902344 28.00219727 10.74902344 27.95458984 13.89111328 C27.94008789 15.57333984 27.94008789 15.57333984 27.92529297 17.28955078 C27.90015625 18.46517578 27.87501953 19.64080078 27.84912109 20.85205078 C27.82881836 22.62708984 27.82881836 22.62708984 27.80810547 24.43798828 C27.77266025 27.36812617 27.72324878 30.29736537 27.66162109 33.22705078 C25.35162109 33.22705078 23.04162109 33.22705078 20.66162109 33.22705078 C20.66162109 35.53705078 20.66162109 37.84705078 20.66162109 40.22705078 C13.07162109 40.22705078 5.48162109 40.22705078 -2.33837891 40.22705078 C-3.82337891 36.76205078 -3.82337891 36.76205078 -5.33837891 33.22705078 C-7.64837891 32.89705078 -9.95837891 32.56705078 -12.33837891 32.22705078 C-12.33837891 24.30705078 -12.33837891 16.38705078 -12.33837891 8.22705078 C-9.69837891 8.22705078 -7.05837891 8.22705078 -4.33837891 8.22705078 C-4.37962891 7.27830078 -4.42087891 6.32955078 -4.46337891 5.35205078 C-4.31402234 1.6181367 -3.84428946 0.37327095 0 0 Z" transform="translate(206.33837890625,154.77294921875)"/><path fill="#0D0800" d="M0 0 C1.32 0 2.64 0 4 0 C3.96744792 2.05078125 3.93489583 4.1015625 3.90234375 6.15234375 C3.79438816 8.01732141 3.79438816 8.01732141 5 9 C5.66 9.33 6.32 9.66 7 10 C7 9.34 7 8.68 7 8 C9.46800047 9.15173355 11.04783565 10.04783565 13 12 C12.67 12.33 12.34 12.66 12 13 C11.83333333 16 11.83333333 16 12 19 C12.33 19.33 12.66 19.66 13 20 C12.67 20.99 12.34 21.98 12 23 C11.34 22.525625 10.68 22.05125 10 21.5625 C6.2066972 19.58682146 3.24475932 19.35972537 -1 19 C-1 21.64 -1 24.28 -1 27 C-3.64 27 -6.28 27 -9 27 C-9 24.36 -9 21.72 -9 19 C-11.64 19 -14.28 19 -17 19 C-17 16.36 -17 13.72 -17 11 C-14.36 11 -11.72 11 -9 11 C-9 8.36 -9 5.72 -9 3 C-6.03 3 -3.06 3 0 3 C0 2.01 0 1.02 0 0 Z" transform="translate(67,96)"/><path fill="#FEFCCD" d="M0 0 C0.33 0 0.66 0 1 0 C1.25401601 4.1238677 1.47400105 8.24885192 1.6875 12.375 C1.76033203 13.550625 1.83316406 14.72625 1.90820312 15.9375 C1.96298828 17.05898437 2.01777344 18.18046875 2.07421875 19.3359375 C2.13182373 20.37282715 2.18942871 21.4097168 2.2487793 22.47802734 C2.16668213 23.31027832 2.08458496 24.1425293 2 25 C1.01 25.66 0.02 26.32 -1 27 C-3.42447967 7.43098553 -3.42447967 7.43098553 0 0 Z M-1 27 C-1.9590625 27.1546875 -1.9590625 27.1546875 -2.9375 27.3125 C-3.618125 27.539375 -4.29875 27.76625 -5 28 C-6.1007076 31.3021228 -6.20627072 33.94083279 -6.31640625 37.41796875 C-6.35830078 38.67158203 -6.40019531 39.92519531 -6.44335938 41.21679688 C-6.48267578 42.52712891 -6.52199219 43.83746094 -6.5625 45.1875 C-6.60570992 46.52279978 -6.649325 47.85808652 -6.69335938 49.19335938 C-6.79956502 52.46213297 -6.90160997 55.73098333 -7 59 C-4.69 59.33 -2.38 59.66 0 60 C0.33 64.62 0.66 69.24 1 74 C2.32 74 3.64 74 5 74 C5.61875 72.845 6.2375 71.69 6.875 70.5 C8.09765625 68.55859375 8.09765625 68.55859375 10 67 C14.71597289 66.36154633 19.26851013 66.59663889 24 67 C23.505 64.03 23.505 64.03 23 61 C24.258125 60.62875 25.51625 60.2575 26.8125 59.875 C31.25588108 58.25639533 31.97936219 56.22496997 34 52 C37.1875 51.125 37.1875 51.125 40 51 C40.0928125 49.8553125 40.0928125 49.8553125 40.1875 48.6875 C41 46 41 46 43.4375 44.1875 C46 43 46 43 48 43 C48.33 40.69 48.66 38.38 49 36 C58.24 36 67.48 36 77 36 C77 36.33 77 36.66 77 37 C71.05653579 38.24621024 65.31025211 38.00456614 59.28125 37.78515625 C57.18662294 37.74700907 55.09046244 37.86257916 53 38 C51.05972335 40.75963009 51.05972335 40.75963009 50.05859375 42.95703125 C45.87085764 51.03889835 36.82752465 59.18152422 28.73046875 63.09765625 C26.71174292 63.90895878 26.71174292 63.90895878 26 66.5625 C25.67 67.366875 25.34 68.17125 25 69 C22.1782634 70.01878893 19.53452533 70.05288847 16.5625 70.125 C13.6870283 70.39546516 12.41291365 70.60516322 10.3046875 72.62109375 C8.75315552 74.75544277 8.75315552 74.75544277 7 78 C4.69 77.34 2.38 76.68 0 76 C-0.31319144 74.60432165 -0.62551788 73.20844918 -0.9375 71.8125 C-1.12699219 70.99136719 -1.31648438 70.17023438 -1.51171875 69.32421875 C-2 67 -2 67 -2.25 64.125 C-2.84582523 61.63946639 -2.84582523 61.63946639 -6 60.5625 C-6.99 60.046875 -7.98 59.53125 -9 59 C-9.98507962 55.04909307 -10.11946882 51.22120142 -10.09765625 47.1640625 C-10.09443359 46.10058594 -10.09121094 45.03710938 -10.08789062 43.94140625 C-10.07951172 42.84699219 -10.07113281 41.75257813 -10.0625 40.625 C-10.05798828 39.50738281 -10.05347656 38.38976562 -10.04882812 37.23828125 C-10.03709244 34.49213196 -10.02067363 31.74609414 -10 29 C-6.78360346 27.25434889 -4.67986596 26.795563 -1 27 Z" transform="translate(106,207)"/><path fill="#F7DCB0" d="M0 0 C2.64 0 5.28 0 8 0 C8 5.28 8 10.56 8 16 C-5.2 16 -18.4 16 -32 16 C-32 13.36 -32 10.72 -32 8 C-21.44 8 -10.88 8 0 8 C0 5.36 0 2.72 0 0 Z" transform="translate(122,123)"/><path fill="#F1DDBD" d="M0 0 C2.64 0 5.28 0 8 0 C8 15.84 8 31.68 8 48 C5.36 48 2.72 48 0 48 C0 32.16 0 16.32 0 0 Z" transform="translate(82,227)"/><path fill="#FADCAD" d="M0 0 C2.64 0 5.28 0 8 0 C8 15.84 8 31.68 8 48 C5.36 48 2.72 48 0 48 C0 32.16 0 16.32 0 0 Z" transform="translate(250,227)"/><path fill="#F5DDB2" d="M0 0 C2.64 0 5.28 0 8 0 C8 2.64 8 5.28 8 8 C18.56 8 29.12 8 40 8 C40 10.64 40 13.28 40 16 C26.8 16 13.6 16 0 16 C0 10.72 0 5.44 0 0 Z" transform="translate(210,123)"/><path fill="#0C0900" d="M0 0 C2.64 0 5.28 0 8 0 C8 2.64 8 5.28 8 8 C10.64 8 13.28 8 16 8 C16 10.64 16 13.28 16 16 C13.36 16 10.72 16 8 16 C8 18.64 8 21.28 8 24 C5.36 24 2.72 24 0 24 C0 21.36 0 18.72 0 16 C-2.64 16 -5.28 16 -8 16 C-8 13.36 -8 10.72 -8 8 C-5.36 8 -2.72 8 0 8 C0 5.36 0 2.72 0 0 Z" transform="translate(154,299)"/><path fill="#F9F793" d="M0 0 C2.64 0 5.28 0 8 0 C8 2.64 8 5.28 8 8 C10.64 8 13.28 8 16 8 C16 10.64 16 13.28 16 16 C13.36 16 10.72 16 8 16 C8 18.64 8 21.28 8 24 C5.36 24 2.72 24 0 24 C0 21.36 0 18.72 0 16 C-2.64 16 -5.28 16 -8 16 C-8 13.36 -8 10.72 -8 8 C-5.36 8 -2.72 8 0 8 C0 5.36 0 2.72 0 0 Z" transform="translate(290,227)"/><path fill="#F6F4A3" d="M0 0 C2.64 0 5.28 0 8 0 C8 2.64 8 5.28 8 8 C10.64 8 13.28 8 16 8 C16 10.64 16 13.28 16 16 C13.36 16 10.72 16 8 16 C8 18.64 8 21.28 8 24 C5.36 24 2.72 24 0 24 C0 21.36 0 18.72 0 16 C-2.64 16 -5.28 16 -8 16 C-8 13.36 -8 10.72 -8 8 C-5.36 8 -2.72 8 0 8 C0 5.36 0 2.72 0 0 Z" transform="translate(138,35)"/><path fill="#FEFEEC" d="M0 0 C2 2 2 2 2.25 3.9375 C2.88332259 6.37100547 2.88332259 6.37100547 6.0625 7.75 C7.5165625 8.36875 7.5165625 8.36875 9 9 C9 10.32 9 11.64 9 13 C7.02 13.33 5.04 13.66 3 14 C2.34 16.97 1.68 19.94 1 23 C-0.65 23 -2.3 23 -4 23 C-4.33 20.69 -4.66 18.38 -5 16 C-7.31 15.67 -9.62 15.34 -12 15 C-12.33 13.02 -12.66 11.04 -13 9 C-9.86501708 7.14223235 -7.62528568 6.79859524 -4 7 C-3.896875 6.21625 -3.79375 5.4325 -3.6875 4.625 C-3 2 -3 2 0 0 Z" transform="translate(183,196)"/><path fill="#F7DBAF" d="M0 0 C7.92 0 15.84 0 24 0 C24 2.64 24 5.28 24 8 C16.08 8 8.16 8 0 8 C0 5.36 0 2.72 0 0 Z" transform="translate(98,291)"/><path fill="#F8DCB0" d="M0 0 C7.92 0 15.84 0 24 0 C24 2.64 24 5.28 24 8 C16.08 8 8.16 8 0 8 C0 5.36 0 2.72 0 0 Z" transform="translate(218,291)"/><path fill="#FADDAB" d="M0 0 C1.66666667 0 3.33333333 0 5 0 C5.02708567 1.60407328 5.04643483 3.2082785 5.0625 4.8125 C5.07410156 5.70582031 5.08570312 6.59914062 5.09765625 7.51953125 C5 10 5 10 4 13 C3.84854901 15.2825699 3.75113021 17.56887706 3.68359375 19.85546875 C3.66281265 20.51710526 3.64203156 21.17874176 3.62062073 21.86042786 C3.55535273 23.96934852 3.49634656 26.07839135 3.4375 28.1875 C3.39429311 29.61915315 3.35067812 31.05079404 3.30664062 32.48242188 C3.19969494 35.98815154 3.09836359 39.49401786 3 43 C1.68 43 0.36 43 -1 43 C-1.02467332 37.19759432 -1.04284724 31.39521902 -1.05493164 25.59277344 C-1.0599681 23.61783313 -1.06679751 21.64289657 -1.07543945 19.66796875 C-1.08753508 16.83332395 -1.0932351 13.99872834 -1.09765625 11.1640625 C-1.10281754 10.27756012 -1.10797882 9.39105774 -1.11329651 8.47769165 C-1.11387171 2.22774341 -1.11387171 2.22774341 0 0 Z" transform="translate(85,229)"/><path fill="#F2DDB7" d="M0 0 C2.64 0 5.28 0 8 0 C8 15.84 8 31.68 8 48 C5.36 48 2.72 48 0 48 C0 32.16 0 16.32 0 0 Z M4 3 C4 3.66 4 4.32 4 5 C3.34 5 2.68 5 2 5 C2 18.2 2 31.4 2 45 C3.65 45 5.3 45 7 45 C7.02497996 40.62581751 7.04299062 36.25167437 7.05493164 31.87744141 C7.05991708 30.39371008 7.06670785 28.90998354 7.07543945 27.42626953 C7.12246397 19.22187384 7.0216355 11.15699528 6 3 C5.34 3 4.68 3 4 3 Z" transform="translate(250,227)"/><path fill="#FCFBCA" d="M0 0 C6.75 -0.125 6.75 -0.125 9 1 C9.73075648 3.3140622 10.40138258 5.64828869 11 8 C12.98 8 14.96 8 17 8 C17.66 10.31 18.32 12.62 19 15 C17.8125 16.5 17.8125 16.5 16 18 C13.3125 18.1875 13.3125 18.1875 11 18 C10.566875 19.4540625 10.566875 19.4540625 10.125 20.9375 C9 24 9 24 7 25 C4.6670134 25.04022391 2.33293334 25.04320247 0 25 C-0.2784375 23.6078125 -0.2784375 23.6078125 -0.5625 22.1875 C-2.10727559 18.76212803 -2.38621238 18.4794021 -5.625 17.125 C-6.73875 16.75375 -7.8525 16.3825 -9 16 C-9 13.36 -9 10.72 -9 8 C-6.36 7.67 -3.72 7.34 -1 7 C-0.67 4.69 -0.34 2.38 0 0 Z M1 4 C1 5.32 1 6.64 1 8 C-1.64 8.33 -4.28 8.66 -7 9 C-7.93423645 12.01031744 -8.04449911 12.86650268 -7 16 C-4.69 16.33 -2.38 16.66 0 17 C0.33 19.31 0.66 21.62 1 24 C2.65 24 4.3 24 6 24 C6.66 21.03 7.32 18.06 8 15 C9.98 14.67 11.96 14.34 14 14 C14 12.68 14 11.36 14 10 C13.05125 9.62875 12.1025 9.2575 11.125 8.875 C8 7 8 7 6.625 3.8125 C6.41875 2.884375 6.2125 1.95625 6 1 C3.86093692 1 2.49230667 2.6521101 1 4 Z" transform="translate(178,195)"/><path fill="#FDFDDA" d="M0 0 C0.95310059 0.01047363 1.90620117 0.02094727 2.88818359 0.03173828 C4.43505859 0.04140625 4.43505859 0.04140625 6.01318359 0.05126953 C7.63353516 0.07640625 7.63353516 0.07640625 9.28662109 0.10205078 C10.37458984 0.11107422 11.46255859 0.12009766 12.58349609 0.12939453 C15.27642261 0.15301669 17.96891365 0.18595522 20.66162109 0.22705078 C20.99162109 2.53705078 21.32162109 4.84705078 21.66162109 7.22705078 C22.65162109 6.89705078 23.64162109 6.56705078 24.66162109 6.22705078 C25.65162109 6.88705078 26.64162109 7.54705078 27.66162109 8.22705078 C28.00219727 10.74902344 28.00219727 10.74902344 27.95458984 13.89111328 C27.94008789 15.57333984 27.94008789 15.57333984 27.92529297 17.28955078 C27.90015625 18.46517578 27.87501953 19.64080078 27.84912109 20.85205078 C27.82881836 22.62708984 27.82881836 22.62708984 27.80810547 24.43798828 C27.77266025 27.36812617 27.72324878 30.29736537 27.66162109 33.22705078 C25.35162109 33.22705078 23.04162109 33.22705078 20.66162109 33.22705078 C20.66162109 35.53705078 20.66162109 37.84705078 20.66162109 40.22705078 C16.87009776 40.31384898 13.07882813 40.36737285 9.28662109 40.41455078 C8.20638672 40.4396875 7.12615234 40.46482422 6.01318359 40.49072266 C4.46630859 40.50522461 4.46630859 40.50522461 2.88818359 40.52001953 C1.93508301 40.53572998 0.98198242 40.55144043 0 40.56762695 C-1.15749756 40.39904175 -1.15749756 40.39904175 -2.33837891 40.22705078 C-4.33837891 37.22705078 -4.33837891 37.22705078 -4.33837891 33.22705078 C-3.67837891 33.22705078 -3.01837891 33.22705078 -2.33837891 33.22705078 C-2.33837891 34.87705078 -2.33837891 36.52705078 -2.33837891 38.22705078 C7.06662109 37.73205078 7.06662109 37.73205078 16.66162109 37.22705078 C17.65162109 34.58705078 18.64162109 31.94705078 19.66162109 29.22705078 C21.97162109 29.88705078 24.28162109 30.54705078 26.66162109 31.22705078 C26.66162109 23.96705078 26.66162109 16.70705078 26.66162109 9.22705078 C24.68162109 9.22705078 22.70162109 9.22705078 20.66162109 9.22705078 C19.95779297 7.52355469 19.95779297 7.52355469 19.23974609 5.78564453 C17.8966498 3.43522601 17.24274843 2.42043173 14.64404297 1.55566406 C12.21226556 1.3125891 9.85514819 1.25709769 7.41162109 1.28955078 C6.57115234 1.2734375 5.73068359 1.25732422 4.86474609 1.24072266 C2.79733306 1.20548266 0.72928083 1.21216023 -1.33837891 1.22705078 C-1.66837891 3.20705078 -1.99837891 5.18705078 -2.33837891 7.22705078 C-2.99837891 7.22705078 -3.65837891 7.22705078 -4.33837891 7.22705078 C-4.46337891 4.85205078 -4.46337891 4.85205078 -4.33837891 2.22705078 C-2.33837891 0.22705078 -2.33837891 0.22705078 0 0 Z" transform="translate(206.33837890625,154.77294921875)"/><path fill="#090505" d="M0 0 C1.32 0 2.64 0 4 0 C3.95117188 3.07617188 3.95117188 3.07617188 3.90234375 6.15234375 C3.79438816 8.01732141 3.79438816 8.01732141 5 9 C5.66 9.33 6.32 9.66 7 10 C7 9.34 7 8.68 7 8 C9.46800047 9.15173355 11.04783565 10.04783565 13 12 C12.67 12.33 12.34 12.66 12 13 C11.83333333 16 11.83333333 16 12 19 C12.33 19.33 12.66 19.66 13 20 C12.67 20.99 12.34 21.98 12 23 C9.5 22.0625 9.5 22.0625 7 20 C6.53053627 16.88497009 6.76998352 14.17422748 7 11 C1.72 11 -3.56 11 -9 11 C-9 8.36 -9 5.72 -9 3 C-6.03 3 -3.06 3 0 3 C0 2.01 0 1.02 0 0 Z" transform="translate(67,96)"/><path fill="#090505" d="M0 0 C-0.33 1.98 -0.66 3.96 -1 6 C-1.99 6.33 -2.98 6.66 -4 7 C-4.33 8.65 -4.66 10.3 -5 12 C-5.99 12 -6.98 12 -8 12 C-8 11.34 -8 10.68 -8 10 C-8.99 10 -9.98 10 -11 10 C-11.33 10.66 -11.66 11.32 -12 12 C-11.67 10.68 -11.34 9.36 -11 8 C-11.99 7.67 -12.98 7.34 -14 7 C-14 4.36 -14 1.72 -14 -1 C-4.58997722 -2.51708428 -4.58997722 -2.51708428 0 0 Z" transform="translate(152,348)"/><path fill="#F3DFB0" d="M0 0 C5.28 0 10.56 0 16 0 C17 2 17 2 16 8 C10.72 8 5.44 8 0 8 C0 5.36 0 2.72 0 0 Z" transform="translate(58,147)"/><path fill="#F7DBAF" d="M0 0 C5.28 0 10.56 0 16 0 C16 2.64 16 5.28 16 8 C10.72 8 5.44 8 0 8 C-1 6 -1 6 0 0 Z" transform="translate(162,251)"/><path fill="#F0DEC0" d="M0 0 C2.64 0 5.28 0 8 0 C8 5.28 8 10.56 8 16 C5.36 16 2.72 16 0 16 C0 10.72 0 5.44 0 0 Z" transform="translate(130,107)"/><path fill="#F5DCB2" d="M0 0 C5.28 0 10.56 0 16 0 C16 2.64 16 5.28 16 8 C10.72 8 5.44 8 0 8 C0 5.36 0 2.72 0 0 Z" transform="translate(202,283)"/><path fill="#F1E0B5" d="M0 0 C5.28 0 10.56 0 16 0 C16 2.64 16 5.28 16 8 C10.72 8 5.44 8 0 8 C0 5.36 0 2.72 0 0 Z" transform="translate(122,283)"/><path fill="#F2DEB4" d="M0 0 C2.64 0 5.28 0 8 0 C8 5.28 8 10.56 8 16 C5.36 16 2.72 16 0 16 C0 10.72 0 5.44 0 0 Z" transform="translate(242,275)"/><path fill="#F2DFB9" d="M0 0 C2.64 0 5.28 0 8 0 C8 5.28 8 10.56 8 16 C5.36 16 2.72 16 0 16 C0 10.72 0 5.44 0 0 Z" transform="translate(242,211)"/><path fill="#F6DDB0" d="M0 0 C2.64 0 5.28 0 8 0 C8 5.28 8 10.56 8 16 C5.36 16 2.72 16 0 16 C0 10.72 0 5.44 0 0 Z" transform="translate(90,211)"/><path fill="#F7DBB1" d="M0 0 C5.28 0 10.56 0 16 0 C16 2.64 16 5.28 16 8 C10.72 8 5.44 8 0 8 C0 5.36 0 2.72 0 0 Z" transform="translate(250,203)"/><path fill="#F6DBB0" d="M0 0 C5.28 0 10.56 0 16 0 C16 2.64 16 5.28 16 8 C10.72 8 5.44 8 0 8 C0 5.36 0 2.72 0 0 Z" transform="translate(74,203)"/><path fill="#F6DBAD" d="M0 0 C2.64 0 5.28 0 8 0 C8 5.28 8 10.56 8 16 C5.36 16 2.72 16 0 16 C0 10.72 0 5.44 0 0 Z" transform="translate(42,163)"/><path fill="#FBDCA6" d="M0 0 C2.64 0 5.28 0 8 0 C8 5.28 8 10.56 8 16 C5.36 16 2.72 16 0 16 C0 10.72 0 5.44 0 0 Z" transform="translate(290,163)"/><path fill="#F1DEBF" d="M0 0 C5.28 0 10.56 0 16 0 C16 2.64 16 5.28 16 8 C10.72 8 5.44 8 0 8 C0 5.36 0 2.72 0 0 Z" transform="translate(74,139)"/><path fill="#F4DDB6" d="M0 0 C5.28 0 10.56 0 16 0 C16 2.64 16 5.28 16 8 C10.72 8 5.44 8 0 8 C0 5.36 0 2.72 0 0 Z" transform="translate(162,75)"/><path fill="#F7DAAC" d="M0 0 C2.64 0 5.28 0 8 0 C8 5.28 8 10.56 8 16 C5.36 16 2.72 16 0 16 C0 10.72 0 5.44 0 0 Z" transform="translate(90,275)"/><path fill="#F5DDB1" d="M0 0 C5.28 0 10.56 0 16 0 C16 2.64 16 5.28 16 8 C10.72 8 5.44 8 0 8 C0 5.36 0 2.72 0 0 Z" transform="translate(266,147)"/><path fill="#F6DDB0" d="M0 0 C5.28 0 10.56 0 16 0 C16 2.64 16 5.28 16 8 C10.72 8 5.44 8 0 8 C0 5.36 0 2.72 0 0 Z" transform="translate(250,139)"/><path fill="#F6DBB0" d="M0 0 C2.64 0 5.28 0 8 0 C8 5.28 8 10.56 8 16 C5.36 16 2.72 16 0 16 C0 10.72 0 5.44 0 0 Z" transform="translate(202,107)"/><path fill="#0A0702" d="M0 0 C0.66 1.32 1.32 2.64 2 4 C1.01 4.495 1.01 4.495 0 5 C0 5.99 0 6.98 0 8 C0.99 8.66 1.98 9.32 3 10 C2.67 11.32 2.34 12.64 2 14 C0.8553125 13.6596875 0.8553125 13.6596875 -0.3125 13.3125 C-1.6428125 13.1578125 -1.6428125 13.1578125 -3 13 C-4.8354799 14.33378575 -4.8354799 14.33378575 -6 16 C-5.67 16.66 -5.34 17.32 -5 18 C-5.66 18 -6.32 18 -7 18 C-7.99 20.475 -7.99 20.475 -9 23 C-9.66 23 -10.32 23 -11 23 C-11 22.34 -11 21.68 -11 21 C-12.32 20.34 -13.64 19.68 -15 19 C-13.68 18.67 -12.36 18.34 -11 18 C-11 15.36 -11 12.72 -11 10 C-8.36 10 -5.72 10 -3 10 C-3.061875 8.906875 -3.12375 7.81375 -3.1875 6.6875 C-3 3 -3 3 -1.5 1.0625 C-1.005 0.711875 -0.51 0.36125 0 0 Z" transform="translate(157,41)"/><path fill="#FAF784" d="M0 0 C1.32 0 2.64 0 4 0 C3.58846263 4.97093824 3.20399168 9.44508386 1 14 C1.66 14 2.32 14 3 14 C3 15.65 3 17.3 3 19 C1.35 19.33 -0.3 19.66 -2 20 C-2.33 17.69 -2.66 15.38 -3 13 C-5.97 12.505 -5.97 12.505 -9 12 C-8.67 10.68 -8.34 9.36 -8 8 C-6.02 8 -4.04 8 -2 8 C-1.34 5.36 -0.68 2.72 0 0 Z" transform="translate(141,37)"/><path fill="#FEFBCC" d="M0 0 C1.95216435 3.90432869 2.50639991 6.72213252 3 11 C4.64630328 10.85957123 6.29204179 10.71250671 7.9375 10.5625 C8.85402344 10.48128906 9.77054688 10.40007812 10.71484375 10.31640625 C12.96159732 10.23955024 12.96159732 10.23955024 14 9 C16.67058851 8.85884839 19.32432238 8.95752893 22 9 C22 9.33 22 9.66 22 10 C27.28 10.33 32.56 10.66 38 11 C38 11.66 38 12.32 38 13 C32.90967159 13.02468084 27.81937785 13.04285082 22.72900391 13.05493164 C20.99657586 13.05996682 19.26415208 13.06679532 17.53173828 13.07543945 C15.04458567 13.08754065 12.55748913 13.09323638 10.0703125 13.09765625 C9.29317902 13.10281754 8.51604553 13.10797882 7.71536255 13.11329651 C2.22774341 13.11387171 2.22774341 13.11387171 0 12 C0 8.04 0 4.08 0 0 Z" transform="translate(202,135)"/><path fill="#FBDCAD" d="M0 0 C4.29154022 -0.0867562 8.58285668 -0.1403089 12.875 -0.1875 C14.70998047 -0.22520508 14.70998047 -0.22520508 16.58203125 -0.26367188 C18.33193359 -0.27817383 18.33193359 -0.27817383 20.1171875 -0.29296875 C21.73536377 -0.31653442 21.73536377 -0.31653442 23.38623047 -0.34057617 C24.68004639 -0.17199097 24.68004639 -0.17199097 26 0 C26.66 0.99 27.32 1.98 28 3 C25.36002351 4.31998825 23.35922683 4.12956032 20.40625 4.1328125 C18.73755859 4.13474609 18.73755859 4.13474609 17.03515625 4.13671875 C15.86855469 4.13285156 14.70195312 4.12898437 13.5 4.125 C12.33339844 4.12886719 11.16679687 4.13273438 9.96484375 4.13671875 C8.85238281 4.13542969 7.73992187 4.13414062 6.59375 4.1328125 C5.56958984 4.13168457 4.54542969 4.13055664 3.49023438 4.12939453 C1 4 1 4 -1 3 C-0.67 2.01 -0.34 1.02 0 0 Z" transform="translate(220,133)"/><path fill="#FDF8D3" d="M0 0 C0.33 0 0.66 0 1 0 C1.38063221 2.3260857 1.71269945 4.66055264 2 7 C1 8 1 8 -2.59765625 8.09765625 C-4.08596867 8.0909822 -5.57426432 8.07902183 -7.0625 8.0625 C-8.20041992 8.05573242 -8.20041992 8.05573242 -9.36132812 8.04882812 C-11.24091871 8.0370068 -13.12046899 8.01907078 -15 8 C-14.814375 9.134375 -14.62875 10.26875 -14.4375 11.4375 C-14.293125 12.613125 -14.14875 13.78875 -14 15 C-15 16 -15 16 -17.22485352 16.11352539 C-18.18319092 16.10828857 -19.14152832 16.10305176 -20.12890625 16.09765625 C-21.68061523 16.09282227 -21.68061523 16.09282227 -23.26367188 16.08789062 C-24.35228516 16.07951172 -25.44089844 16.07113281 -26.5625 16.0625 C-28.2012207 16.05573242 -28.2012207 16.05573242 -29.87304688 16.04882812 C-32.58208495 16.03699826 -35.29101599 16.02051543 -38 16 C-38 15.34 -38 14.68 -38 14 C-36.0625 13.4375 -36.0625 13.4375 -34 13 C-33.67 13.33 -33.34 13.66 -33 14 C-29.79950343 14.17299981 -27.07045451 13.9097643 -24 13 C-24 13.33 -24 13.66 -24 14 C-21.69 14 -19.38 14 -17 14 C-16.67 11.69 -16.34 9.38 -16 7 C-13 6 -13 6 -10.625 5.5625 C-6.16435784 4.60664811 -3.08766758 3.39643434 0 0 Z" transform="translate(137,275)"/><path fill="#FEFBCC" d="M0 0 C1.63001953 0.01353516 1.63001953 0.01353516 3.29296875 0.02734375 C4.12441406 0.03894531 4.95585937 0.05054687 5.8125 0.0625 C5.8125 1.0525 5.8125 2.0425 5.8125 3.0625 C1.8525 3.0625 -2.1075 3.0625 -6.1875 3.0625 C-6.6 4.01125 -7.0125 4.96 -7.4375 5.9375 C-9.34544848 9.34455085 -9.87511072 9.50372857 -13.1875 11.0625 C-14.85817133 13.05915598 -16.52502986 15.05901034 -18.1875 17.0625 C-19.1775 17.3925 -20.1675 17.7225 -21.1875 18.0625 C-21.36925781 19.32707031 -21.36925781 19.32707031 -21.5546875 20.6171875 C-21.72226563 21.71289062 -21.88984375 22.80859375 -22.0625 23.9375 C-22.22492188 25.02804688 -22.38734375 26.11859375 -22.5546875 27.2421875 C-23.1875 30.0625 -23.1875 30.0625 -25.1875 32.0625 C-25.21465383 30.31258666 -25.23396551 28.56255055 -25.25 26.8125 C-25.26160156 25.83796875 -25.27320313 24.8634375 -25.28515625 23.859375 C-25.19742567 21.34677114 -25.12178922 19.39048031 -24.1875 17.0625 C-22.43863308 16.05852084 -20.68562308 15.0593651 -18.89453125 14.1328125 C-16.45974426 12.60619548 -15.52981363 10.55536817 -14.1875 8.0625 C-13.48625 7.546875 -12.785 7.03125 -12.0625 6.5 C-9.79571206 4.76212924 -9.81428653 3.74872799 -9.1875 1.0625 C-5.90230525 -0.03256492 -3.45086585 -0.03710608 0 0 Z" transform="translate(169.1875,97.9375)"/><path fill="#100401" d="M0 0 C4.29 0 8.58 0 13 0 C13 0.33 13 0.66 13 1 C10.69 1.33 8.38 1.66 6 2 C5.34 4.31 4.68 6.62 4 9 C0.26513121 9.5745952 -3.21293268 10 -7 10 C-6.34 12.31 -5.68 14.62 -5 17 C-8.43515002 17.62457273 -11.49064814 18 -15 18 C-14.67 19.65 -14.34 21.3 -14 23 C-14.66 23.33 -15.32 23.66 -16 24 C-16 21.36 -16 18.72 -16 16 C-13.36 16 -10.72 16 -8 16 C-8 13.36 -8 10.72 -8 8 C-5.36 8 -2.72 8 0 8 C0 5.36 0 2.72 0 0 Z" transform="translate(162,259)"/><path fill="#F1DEBF" d="M0 0 C5.61 0 11.22 0 17 0 C17 2.64 17 5.28 17 8 C9.08 8 1.16 8 -7 8 C-7 6.02 -7 4.04 -7 2 C-5.35 1.67 -3.7 1.34 -2 1 C-2.99 1.495 -2.99 1.495 -4 2 C-3.67 2.99 -3.34 3.98 -3 5 C-1.52168779 5.19412181 -0.04230684 5.38012131 1.4375 5.5625 C2.26121094 5.66691406 3.08492187 5.77132813 3.93359375 5.87890625 C4.61550781 5.91886719 5.29742187 5.95882813 6 6 C6.33 5.67 6.66 5.34 7 5 C9.33297433 4.95907063 11.66705225 4.95758277 14 5 C14.33 4.01 14.66 3.02 15 2 C10.05 1.67 5.1 1.34 0 1 C0 0.67 0 0.34 0 0 Z" transform="translate(105,291)"/><path fill="#FDFDD8" d="M0 0 C6.75 -0.125 6.75 -0.125 9 1 C9.73075648 3.3140622 10.40138258 5.64828869 11 8 C12.65 8.33 14.3 8.66 16 9 C15.67 11.31 15.34 13.62 15 16 C13.35 16.33 11.7 16.66 10 17 C9.34 18.98 8.68 20.96 8 23 C7.34 23 6.68 23 6 23 C6.875 17.25 6.875 17.25 8 15 C11.0625 14.375 11.0625 14.375 14 14 C14 12.68 14 11.36 14 10 C13.401875 9.87625 12.80375 9.7525 12.1875 9.625 C10 9 10 9 7 7 C5.8125 4.375 5.8125 4.375 5 2 C1.9890638 4.0072908 1.36983503 4.83884224 0 8 C0 5.36 0 2.72 0 0 Z" transform="translate(178,195)"/><path fill="#FEFCCF" d="M0 0 C0.33 0 0.66 0 1 0 C1.02685095 2.47923801 1.04676547 4.9581884 1.0625 7.4375 C1.07087891 8.14455078 1.07925781 8.85160156 1.08789062 9.58007812 C1.09653588 11.38693559 1.05220011 13.19387603 1 15 C-1.13086442 17.13086442 -5.89166935 16.25960872 -8.84765625 16.31640625 C-9.7340831 16.33718735 -10.62050995 16.35796844 -11.53379822 16.37937927 C-14.376617 16.444974 -17.21953117 16.50380552 -20.0625 16.5625 C-21.98503606 16.6056758 -23.90756234 16.64928978 -25.83007812 16.69335938 C-30.55328668 16.80066543 -35.27659153 16.90190451 -40 17 C-40 18.65 -40 20.3 -40 22 C-42 19 -42 19 -41.625 16.8125 C-41.41875 16.214375 -41.2125 15.61625 -41 15 C-33.19744856 13.78925926 -25.84402334 14.27473468 -18 15 C-18 14.34 -18 13.68 -18 13 C-17.01 13.33 -16.02 13.66 -15 14 C-12.60509014 14.06970052 -10.20832309 14.08448003 -7.8125 14.0625 C-6.54019531 14.05347656 -5.26789063 14.04445312 -3.95703125 14.03515625 C-2.98121094 14.02355469 -2.00539062 14.01195312 -1 14 C-1.01160156 13.24074219 -1.02320313 12.48148438 -1.03515625 11.69921875 C-1.04417969 10.70535156 -1.05320313 9.71148437 -1.0625 8.6875 C-1.07410156 7.70136719 -1.08570313 6.71523437 -1.09765625 5.69921875 C-1 3 -1 3 0 0 Z" transform="translate(137,131)"/><path fill="#FDFCCD" d="M0 0 C0 0.33 0 0.66 0 1 C-1.216875 1.04125 -2.43375 1.0825 -3.6875 1.125 C-5.92690637 1.31647729 -5.92690637 1.31647729 -8 2 C-9.17794589 3.52814602 -10.35389296 5.06002691 -11.44921875 6.6484375 C-14.27522336 9.11140374 -17.88118748 8.63111353 -21.4765625 8.6015625 C-24.16368613 8.755691 -24.16368613 8.755691 -25.8359375 11.0234375 C-26.41214844 12.00183594 -26.41214844 12.00183594 -27 13 C-27.66 12.67 -28.32 12.34 -29 12 C-28.67 10.68 -28.34 9.36 -28 8 C-27.34 8 -26.68 8 -26 8 C-25.67 7.01 -25.34 6.02 -25 5 C-23.33388095 4.957279 -21.66617115 4.95936168 -20 5 C-19.67 5.33 -19.34 5.66 -19 6 C-17.33382885 6.04063832 -15.66611905 6.042721 -14 6 C-13.67 4.02 -13.34 2.04 -13 0 C-7.95531271 -2.21474076 -5.14089313 -1.85072153 0 0 Z" transform="translate(93,155)"/><path fill="#F5DDBB" d="M0 0 C10.56 0 21.12 0 32 0 C32 1.98 32 3.96 32 6 C30.68 5.67 29.36 5.34 28 5 C28 4.34 28 3.68 28 3 C18.76 3 9.52 3 0 3 C0 2.01 0 1.02 0 0 Z" transform="translate(218,131)"/><path fill="#090506" d="M0 0 C2.64 0 5.28 0 8 0 C8 3 8 3 6 5.0625 C5.34 5.701875 4.68 6.34125 4 7 C4 7.66 4 8.32 4 9 C3.38125 9.28875 2.7625 9.5775 2.125 9.875 C-0.13325765 10.93720042 -0.13325765 10.93720042 -2 13 C-3.32 13 -4.64 13 -6 13 C-5.67 11.68 -5.34 10.36 -5 9 C-3.35 8.67 -1.7 8.34 0 8 C0 5.36 0 2.72 0 0 Z" transform="translate(298,243)"/><path fill="#FEF6D6" d="M0 0 C2.64 0 5.28 0 8 0 C6.02 2.97 6.02 2.97 4 6 C3.34 5.67 2.68 5.34 2 5 C1.67 18.53 1.34 32.06 1 46 C0.34 45.67 -0.32 45.34 -1 45 C-0.67 30.15 -0.34 15.3 0 0 Z" transform="translate(90,227)"/><path fill="#F0DCC2" d="M0 0 C0.99 0 1.98 0 3 0 C3 1.65 3 3.3 3 5 C9.27 5.33 15.54 5.66 22 6 C22.66 4.68 23.32 3.36 24 2 C24 3.98 24 5.96 24 8 C16.08 8 8.16 8 0 8 C0 5.36 0 2.72 0 0 Z" transform="translate(218,291)"/><path fill="#F3F1B6" d="M0 0 C2.64 0 5.28 0 8 0 C8 2.64 8 5.28 8 8 C5.36 8 2.72 8 0 8 C0 5.36 0 2.72 0 0 Z" transform="translate(138,347)"/><path fill="#F6F59B" d="M0 0 C2.64 0 5.28 0 8 0 C8 2.64 8 5.28 8 8 C5.36 8 2.72 8 0 8 C0 5.36 0 2.72 0 0 Z" transform="translate(154,315)"/><path fill="#F4F3AC" d="M0 0 C2.64 0 5.28 0 8 0 C8 2.64 8 5.28 8 8 C5.36 8 2.72 8 0 8 C0 5.36 0 2.72 0 0 Z" transform="translate(162,307)"/><path fill="#F4F4B0" d="M0 0 C2.64 0 5.28 0 8 0 C8 2.64 8 5.28 8 8 C5.36 8 2.72 8 0 8 C0 5.36 0 2.72 0 0 Z" transform="translate(114,307)"/><path fill="#F6F3AC" d="M0 0 C2.64 0 5.28 0 8 0 C8 2.64 8 5.28 8 8 C5.36 8 2.72 8 0 8 C0 5.36 0 2.72 0 0 Z" transform="translate(146,307)"/><path fill="#F4F2B6" d="M0 0 C2.64 0 5.28 0 8 0 C8 2.64 8 5.28 8 8 C5.36 8 2.72 8 0 8 C0 5.36 0 2.72 0 0 Z" transform="translate(154,299)"/><path fill="#F3F1B6" d="M0 0 C2.64 0 5.28 0 8 0 C8 2.64 8 5.28 8 8 C5.36 8 2.72 8 0 8 C0 5.36 0 2.72 0 0 Z" transform="translate(266,299)"/><path fill="#F3F1B6" d="M0 0 C2.64 0 5.28 0 8 0 C8 2.64 8 5.28 8 8 C5.36 8 2.72 8 0 8 C0 5.36 0 2.72 0 0 Z" transform="translate(42,267)"/><path fill="#F3F2AC" d="M0 0 C2.64 0 5.28 0 8 0 C8 2.64 8 5.28 8 8 C10.64 8 13.28 8 16 8 C16 10.64 16 13.28 16 16 C13.36 16 10.72 16 8 16 C8 15.67 8 15.34 8 15 C9.98 15 11.96 15 14 15 C14 13.02 14 11.04 14 9 C13.05125 9.20625 12.1025 9.4125 11.125 9.625 C10.09375 9.74875 9.0625 9.8725 8 10 C6 8 6 8 5.875 4.875 C5.91625 3.92625 5.9575 2.9775 6 2 C4.35 2 2.7 2 1 2 C1 3.98 1 5.96 1 8 C0.67 8 0.34 8 0 8 C0 5.36 0 2.72 0 0 Z" transform="translate(290,227)"/><path fill="#F3F1B5" d="M0 0 C2.64 0 5.28 0 8 0 C8 2.64 8 5.28 8 8 C5.36 8 2.72 8 0 8 C0 5.36 0 2.72 0 0 Z" transform="translate(58,219)"/><path fill="#EFDEC2" d="M0 0 C2.64 0 5.28 0 8 0 C8 2.64 8 5.28 8 8 C5.36 8 2.72 8 0 8 C0 5.36 0 2.72 0 0 Z" transform="translate(50,155)"/><path fill="#F4F4AA" d="M0 0 C2.64 0 5.28 0 8 0 C8 2.64 8 5.28 8 8 C5.36 8 2.72 8 0 8 C0 5.36 0 2.72 0 0 Z" transform="translate(58,115)"/><path fill="#F4F5A1" d="M0 0 C2.64 0 5.28 0 8 0 C8 2.64 8 5.28 8 8 C5.36 8 2.72 8 0 8 C0 5.36 0 2.72 0 0 Z" transform="translate(66,107)"/><path fill="#F4F1B4" d="M0 0 C2.64 0 5.28 0 8 0 C8 2.64 8 5.28 8 8 C5.36 8 2.72 8 0 8 C0 5.36 0 2.72 0 0 Z" transform="translate(50,107)"/><path fill="#F1DEC0" d="M0 0 C2.64 0 5.28 0 8 0 C8 2.64 8 5.28 8 8 C5.36 8 2.72 8 0 8 C0 5.36 0 2.72 0 0 Z" transform="translate(138,99)"/><path fill="#F3F2B3" d="M0 0 C2.64 0 5.28 0 8 0 C8 2.64 8 5.28 8 8 C5.36 8 2.72 8 0 8 C0 5.36 0 2.72 0 0 Z" transform="translate(282,99)"/><path fill="#F3F4B1" d="M0 0 C2.64 0 5.28 0 8 0 C8 2.64 8 5.28 8 8 C5.36 8 2.72 8 0 8 C0 5.36 0 2.72 0 0 Z" transform="translate(58,99)"/><path fill="#EFDBBF" d="M0 0 C2.64 0 5.28 0 8 0 C8 2.64 8 5.28 8 8 C5.36 8 2.72 8 0 8 C0 5.36 0 2.72 0 0 Z" transform="translate(146,91)"/><path fill="#F2DEBC" d="M0 0 C2.64 0 5.28 0 8 0 C8 2.64 8 5.28 8 8 C5.36 8 2.72 8 0 8 C0 5.36 0 2.72 0 0 Z" transform="translate(154,83)"/><path fill="#F3F2B3" d="M0 0 C2.64 0 5.28 0 8 0 C8 2.64 8 5.28 8 8 C5.36 8 2.72 8 0 8 C0 5.36 0 2.72 0 0 Z" transform="translate(234,83)"/><path fill="#EFDEC0" d="M0 0 C2.64 0 5.28 0 8 0 C8 2.64 8 5.28 8 8 C5.36 8 2.72 8 0 8 C0 5.36 0 2.72 0 0 Z" transform="translate(138,275)"/><path fill="#F3DCB5" d="M0 0 C2.64 0 5.28 0 8 0 C8 2.64 8 5.28 8 8 C5.36 8 2.72 8 0 8 C0 5.36 0 2.72 0 0 Z" transform="translate(186,267)"/><path fill="#F2DDBB" d="M0 0 C2.64 0 5.28 0 8 0 C8 2.64 8 5.28 8 8 C5.36 8 2.72 8 0 8 C0 5.36 0 2.72 0 0 Z" transform="translate(146,267)"/><path fill="#F1DDBE" d="M0 0 C2.64 0 5.28 0 8 0 C8 2.64 8 5.28 8 8 C5.36 8 2.72 8 0 8 C0 5.36 0 2.72 0 0 Z" transform="translate(154,259)"/><path fill="#EFDEC0" d="M0 0 C2.64 0 5.28 0 8 0 C8 2.64 8 5.28 8 8 C5.36 8 2.72 8 0 8 C0 5.36 0 2.72 0 0 Z" transform="translate(266,195)"/><path fill="#FEFCCC" d="M0 0 C2.31 0.33 4.62 0.66 7 1 C7.33 3.31 7.66 5.62 8 8 C13.28 8.33 18.56 8.66 24 9 C24.33 11.31 24.66 13.62 25 16 C26.98 16 28.96 16 31 16 C31.33 16.66 31.66 17.32 32 18 C29.36 17.67 26.72 17.34 24 17 C23.34 15.35 22.68 13.7 22 12 C21.43152344 11.93941406 20.86304687 11.87882813 20.27734375 11.81640625 C15.50218963 11.29823427 10.7507695 10.70756141 6 10 C6 7.69 6 5.38 6 3 C4.02 2.34 2.04 1.68 0 1 C0 0.67 0 0.34 0 0 Z" transform="translate(74,186)"/><path fill="#F3DCB5" d="M0 0 C2.64 0 5.28 0 8 0 C8 2.64 8 5.28 8 8 C5.36 8 2.72 8 0 8 C0 5.36 0 2.72 0 0 Z" transform="translate(58,187)"/><path fill="#F2DDBA" d="M0 0 C2.64 0 5.28 0 8 0 C8 2.64 8 5.28 8 8 C5.36 8 2.72 8 0 8 C0 5.36 0 2.72 0 0 Z" transform="translate(274,187)"/><path fill="#F0DDC1" d="M0 0 C2.64 0 5.28 0 8 0 C8 2.64 8 5.28 8 8 C5.36 8 2.72 8 0 8 C0 5.36 0 2.72 0 0 Z" transform="translate(282,179)"/><path fill="#F1DEBB" d="M0 0 C2.64 0 5.28 0 8 0 C8 2.64 8 5.28 8 8 C5.36 8 2.72 8 0 8 C0 5.36 0 2.72 0 0 Z" transform="translate(282,155)"/><path fill="#FEF6D5" d="M0 0 C12.21 0 24.42 0 37 0 C37 0.33 37 0.66 37 1 C29.6792396 2.3461087 22.42455694 1.99479387 15.00976562 1.78515625 C14.01009766 1.77097656 13.01042969 1.75679687 11.98046875 1.7421875 C11.07192139 1.7201123 10.16337402 1.69803711 9.22729492 1.67529297 C8.12478394 1.83602295 8.12478394 1.83602295 7 2 C6.01 3.485 6.01 3.485 5 5 C4.01 5 3.02 5 2 5 C1.34 5.99 0.68 6.98 0 8 C0 5.36 0 2.72 0 0 Z" transform="translate(90,139)"/><path fill="#F2DFBE" d="M0 0 C5.28 0 10.56 0 16 0 C16 2.64 16 5.28 16 8 C10.72 8 5.44 8 0 8 C-1 6 -1 6 0 0 Z M3 1 C2.34 2.32 1.68 3.64 1 5 C5.31975522 7.22532845 8.29918409 7.06433568 13 6 C13.66 5.34 14.32 4.68 15 4 C15 3.01 15 2.02 15 1 C11.04 1 7.08 1 3 1 Z" transform="translate(162,251)"/><path fill="#F1DFB0" d="M0 0 C2.64 0 5.28 0 8 0 C8 2.64 8 5.28 8 8 C5.36 8 2.72 8 0 8 C0 5.36 0 2.72 0 0 Z" transform="translate(194,99)"/><path fill="#F1DDB2" d="M0 0 C2.64 0 5.28 0 8 0 C8 2.64 8 5.28 8 8 C5.36 8 2.72 8 0 8 C0 5.36 0 2.72 0 0 Z" transform="translate(186,91)"/><path fill="#F1DCB6" d="M0 0 C2.64 0 5.28 0 8 0 C8 2.64 8 5.28 8 8 C5.36 8 2.72 8 0 8 C0 5.36 0 2.72 0 0 Z" transform="translate(178,83)"/><path fill="#F0DCC1" d="M0 0 C2.64 0 5.28 0 8 0 C8 5.28 8 10.56 8 16 C5.36 16 2.72 16 0 16 C0 13.69 0 11.38 0 9 C0.33 10.32 0.66 11.64 1 13 C2.65 13 4.3 13 6 13 C6 9.7 6 6.4 6 3 C4.02 3 2.04 3 0 3 C0 2.01 0 1.02 0 0 Z" transform="translate(290,163)"/><path fill="#F8DBAC" d="M0 0 C-0.33 3.96 -0.66 7.92 -1 12 C-2.66666667 12 -4.33333333 12 -6 12 C-6.33 8.37 -6.66 4.74 -7 1 C-4 0 -4 0 0 0 Z" transform="translate(138,110)"/><path fill="#F4DCBB" d="M0 0 C0.99 0 1.98 0 3 0 C3.03738281 0.81984375 3.07476562 1.6396875 3.11328125 2.484375 C3.17902344 3.56203125 3.24476562 4.6396875 3.3125 5.75 C3.37050781 6.81734375 3.42851563 7.8846875 3.48828125 8.984375 C4.03090154 12.1821068 4.85071145 13.62598691 7 16 C4.69 16 2.38 16 0 16 C0 10.72 0 5.44 0 0 Z" transform="translate(90,275)"/><path fill="#F2DDC0" d="M0 0 C2.31 0 4.62 0 7 0 C7.33 2.64 7.66 5.28 8 8 C5.36 8 2.72 8 0 8 C0 5.36 0 2.72 0 0 Z" transform="translate(178,259)"/><path fill="#F2DDC0" d="M0 0 C2.31 0 4.62 0 7 0 C7.33 2.64 7.66 5.28 8 8 C5.36 8 2.72 8 0 8 C0 5.36 0 2.72 0 0 Z" transform="translate(50,179)"/><path fill="#F2DDC0" d="M0 0 C1.98 0 3.96 0 6 0 C8 5.75 8 5.75 8 8 C5.36 8 2.72 8 0 8 C0 5.36 0 2.72 0 0 Z" transform="translate(194,275)"/><path fill="#F2DDC0" d="M0 0 C1.98 0 3.96 0 6 0 C8 5.75 8 5.75 8 8 C5.36 8 2.72 8 0 8 C0 5.36 0 2.72 0 0 Z" transform="translate(66,195)"/><path fill="#F3DDC2" d="M0 0 C5.28 0 10.56 0 16 0 C16.33 0.66 16.66 1.32 17 2 C13.70807706 3.64596147 10.15500794 3.01378964 6.53125 2.9375 C4.00488703 2.82047338 4.00488703 2.82047338 2 4 C2 4.99 2 5.98 2 7 C1.34 7 0.68 7 0 7 C0 4.69 0 2.38 0 0 Z" transform="translate(58,147)"/><path fill="#F8DBAE" d="M0 0 C3.96 0 7.92 0 12 0 C12.33 0.99 12.66 1.98 13 3 C12.67 3.66 12.34 4.32 12 5 C10.54176788 5.0270043 9.08339325 5.04639787 7.625 5.0625 C6.81289062 5.07410156 6.00078125 5.08570313 5.1640625 5.09765625 C3 5 3 5 1 4 C0.67 2.68 0.34 1.36 0 0 Z" transform="translate(77,141)"/><path fill="#FDF7D2" d="M0 0 C1.60956174 2.68260289 0.74593792 4.79502668 0.03125 7.71875 C-1.4293785 5.07136084 -1.96875 3.82426666 -1.96875 0.71875 C-2.58363281 0.92371094 -3.19851562 1.12867187 -3.83203125 1.33984375 C-7.2109375 2.46614583 -10.58984375 3.59244792 -13.96875 4.71875 C-14.62875 5.70875 -15.28875 6.69875 -15.96875 7.71875 C-15.96875 5.07875 -15.96875 2.43875 -15.96875 -0.28125 C-13.69997896 -0.53000561 -11.42855265 -0.75464246 -9.15625 -0.96875 C-7.25939453 -1.16017578 -7.25939453 -1.16017578 -5.32421875 -1.35546875 C-1.96875 -1.28125 -1.96875 -1.28125 0 0 Z" transform="translate(177.96875,83.28125)"/><path fill="#F0DFBE" d="M0 0 C3.3 0 6.6 0 10 0 C10 2.64 10 5.28 10 8 C4.72 8 -0.56 8 -6 8 C-6 6.02 -6 4.04 -6 2 C-5.01 2 -4.02 2 -3 2 C-3.33 3.65 -3.66 5.3 -4 7 C-2.741875 6.87625 -1.48375 6.7525 -0.1875 6.625 C0.87404297 6.52058594 0.87404297 6.52058594 1.95703125 6.4140625 C4.29988142 6.07334609 4.29988142 6.07334609 7 4 C7.33 3.01 7.66 2.02 8 1 C5.36 1 2.72 1 0 1 C0 0.67 0 0.34 0 0 Z" transform="translate(80,203)"/><path fill="#F0DEC0" d="M0 0 C2.97 0 5.94 0 9 0 C9 0.33 9 0.66 9 1 C6.36 1 3.72 1 1 1 C1.33 2.32 1.66 3.64 2 5 C7.55493924 6.02703748 7.55493924 6.02703748 13 5 C13 3.35 13 1.7 13 0 C13.99 0 14.98 0 16 0 C16 2.64 16 5.28 16 8 C10.72 8 5.44 8 0 8 C0 5.36 0 2.72 0 0 Z" transform="translate(250,203)"/><path fill="#FEFDDC" d="M0 0 C2.64 0 5.28 0 8 0 C8 0.66 8 1.32 8 2 C5.03 1.505 5.03 1.505 2 1 C2 7.6 2 14.2 2 21 C3.65 21.33 5.3 21.66 7 22 C7 22.99 7 23.98 7 25 C4.69 24.67 2.38 24.34 0 24 C0 16.08 0 8.16 0 0 Z" transform="translate(194,163)"/><path fill="#EFDCC5" d="M0 0 C5.28 0 10.56 0 16 0 C16 2.64 16 5.28 16 8 C15.34 7.67 14.68 7.34 14 7 C14 5.35 14 3.7 14 2 C7.22120153 2.10062489 7.22120153 2.10062489 1.375 5.0625 C0.92125 5.701875 0.4675 6.34125 0 7 C0 4.69 0 2.38 0 0 Z" transform="translate(162,75)"/><path fill="#FADBB3" d="M0 0 C0.99773437 0.02320313 1.99546875 0.04640625 3.0234375 0.0703125 C4.52777344 0.09738281 4.52777344 0.09738281 6.0625 0.125 C6.83335937 0.14820313 7.60421875 0.17140625 8.3984375 0.1953125 C8.3984375 1.1853125 8.3984375 2.1753125 8.3984375 3.1953125 C4.4384375 4.1853125 0.4784375 5.1753125 -3.6015625 6.1953125 C-3.9315625 4.8753125 -4.2615625 3.5553125 -4.6015625 2.1953125 C-2.6015625 0.1953125 -2.6015625 0.1953125 0 0 Z" transform="translate(127.6015625,284.8046875)"/><path fill="#F9FA86" d="M0 0 C1.65 0 3.3 0 5 0 C5.66 3.3 6.32 6.6 7 10 C4.36 9.67 1.72 9.34 -1 9 C-0.67 6.03 -0.34 3.06 0 0 Z" transform="translate(291,229)"/><path fill="#F0DDC4" d="M0 0 C10.23 0 20.46 0 31 0 C31 0.33 31 0.66 31 1 C22.42 1.33 13.84 1.66 5 2 C4.67 2.66 4.34 3.32 4 4 C3.34 4 2.68 4 2 4 C2 4.99 2 5.98 2 7 C2.66 7.33 3.32 7.66 4 8 C2.68 8 1.36 8 0 8 C0 5.36 0 2.72 0 0 Z" transform="translate(90,131)"/><path fill="#F9DBAD" d="M0 0 C1.65 0 3.3 0 5 0 C5 3.96 5 7.92 5 12 C3.68 12 2.36 12 1 12 C0.67 8.04 0.34 4.08 0 0 Z" transform="translate(243,212)"/><path fill="#EFDEC7" d="M0 0 C2.64 0 5.28 0 8 0 C7.34 1.32 6.68 2.64 6 4 C5.34 4 4.68 4 4 4 C3.01 4.495 3.01 4.495 2 5 C2.14107747 6.45880109 2.28802415 7.91703551 2.4375 9.375 C2.51871094 10.18710938 2.59992187 10.99921875 2.68359375 11.8359375 C2.89090114 14.04272805 2.89090114 14.04272805 4 16 C2.68 16 1.36 16 0 16 C0 10.72 0 5.44 0 0 Z" transform="translate(42,163)"/><path fill="#06040D" d="M0 0 C-0.33 0.99 -0.66 1.98 -1 3 C-2.1446875 2.6596875 -2.1446875 2.6596875 -3.3125 2.3125 C-4.199375 2.209375 -5.08625 2.10625 -6 2 C-7.8354799 3.33378575 -7.8354799 3.33378575 -9 5 C-8.67 5.66 -8.34 6.32 -8 7 C-8.66 7 -9.32 7 -10 7 C-10.66 8.65 -11.32 10.3 -12 12 C-12.66 12 -13.32 12 -14 12 C-13.33826379 7.63254099 -12.15664128 3.86708091 -10 0 C-6.37427992 -1.23428769 -3.61212924 -1.25035243 0 0 Z" transform="translate(160,52)"/><path fill="#FEFEDE" d="M0 0 C1.2065625 0.0309375 1.2065625 0.0309375 2.4375 0.0625 C2.81813221 2.3885857 3.15019945 4.72305264 3.4375 7.0625 C2.4375 8.0625 2.4375 8.0625 -0.0625 8.1875 C-2.5625 8.0625 -2.5625 8.0625 -3.5625 7.0625 C-3.6875 4.0625 -3.6875 4.0625 -3.5625 1.0625 C-2.5625 0.0625 -2.5625 0.0625 0 0 Z" transform="translate(166.5625,218.9375)"/><path fill="#FCF9D6" d="M0 0 C5.28 0 10.56 0 16 0 C15.67 0.66 15.34 1.32 15 2 C12.36 2 9.72 2 7 2 C6.67 2.99 6.34 3.98 6 5 C4.35 5 2.7 5 1 5 C0.67 5.99 0.34 6.98 0 8 C0 5.36 0 2.72 0 0 Z" transform="translate(58,155)"/><path fill="#0E0402" d="M0 0 C2 1 2 1 2 1 Z M1 2 C0.01 2.33 -0.98 2.66 -2 3 C-2.33 3.99 -2.66 4.98 -3 6 C-4.32796291 6.35412344 -5.66216607 6.68521554 -7 7 C-8.73026102 8.47890069 -8.73026102 8.47890069 -10 10 C-10 7.36 -10 4.72 -10 2 C-2.375 0.875 -2.375 0.875 1 2 Z" transform="translate(252,289)"/><path fill="#0C0304" d="M0 0 C4 0 4 0 6 1 C6.73075648 3.3140622 7.40138258 5.64828869 8 8 C5.36 8 2.72 8 0 8 C0 5.36 0 2.72 0 0 Z" transform="translate(282,147)"/><path fill="#F0DDC1" d="M0 0 C5.28 0 10.56 0 16 0 C16 2.64 16 5.28 16 8 C14.62437146 6.71034824 13.29233607 5.37310707 12 4 C12 3.34 12 2.68 12 2 C8.37 2.33 4.74 2.66 1 3 C0.67 2.01 0.34 1.02 0 0 Z" transform="translate(250,139)"/><path fill="#F4DCBB" d="M0 0 C2.475 0.495 2.475 0.495 5 1 C4.67 1.99 4.34 2.98 4 4 C6.39763185 6.39763185 7.33273498 6.34280586 10.625 6.625 C11.44226563 6.69976562 12.25953125 6.77453125 13.1015625 6.8515625 C13.72804687 6.90054687 14.35453125 6.94953125 15 7 C15 7.33 15 7.66 15 8 C10.05 8 5.1 8 0 8 C0 5.36 0 2.72 0 0 Z" transform="translate(202,283)"/><path fill="#FEF8D4" d="M0 0 C2.64 0 5.28 0 8 0 C7.401875 0.680625 6.80375 1.36125 6.1875 2.0625 C3.76412357 5.31674834 2.4747599 8.23936225 1 12 C0.67 12 0.34 12 0 12 C0 8.04 0 4.08 0 0 Z" transform="translate(50,163)"/><path fill="#F6F2AC" d="M0 0 C2.64 0 5.28 0 8 0 C8 0.66 8 1.32 8 2 C6.35 2 4.7 2 3 2 C3.33 2.99 3.66 3.98 4 5 C6.01508358 5.73323796 6.01508358 5.73323796 8 6 C8 6.66 8 7.32 8 8 C5.36 8 2.72 8 0 8 C0 5.36 0 2.72 0 0 Z" transform="translate(282,235)"/><path fill="#FDF8D4" d="M0 0 C1.18851563 0.10183594 2.37703125 0.20367187 3.6015625 0.30859375 C4.51679687 0.39238281 5.43203125 0.47617188 6.375 0.5625 C6.375 0.8925 6.375 1.2225 6.375 1.5625 C3.735 1.5625 1.095 1.5625 -1.625 1.5625 C-2.285 2.8825 -2.945 4.2025 -3.625 5.5625 C-4.285 5.5625 -4.945 5.5625 -5.625 5.5625 C-7.25014468 7.02083358 -7.25014468 7.02083358 -8.625 8.5625 C-8.625 5.9225 -8.625 3.2825 -8.625 0.5625 C-5.68113377 -0.90943312 -3.25109964 -0.28686173 0 0 Z" transform="translate(82.625,146.4375)"/><path fill="#FCF9D7" d="M0 0 C2.64 0 5.28 0 8 0 C6.6875 2.5 6.6875 2.5 5 5 C4.01 5 3.02 5 2 5 C2 8.3 2 11.6 2 15 C1.01 15.495 1.01 15.495 0 16 C0 10.72 0 5.44 0 0 Z" transform="translate(138,107)"/><path fill="#100403" d="M0 0 C2.97 0.33 5.94 0.66 9 1 C9 3.64 9 6.28 9 9 C6.48916886 7.74458443 6.12874554 6.49936512 5 4 C4.34 4.66 3.68 5.32 3 6 C0.875 5.625 0.875 5.625 -1 5 C-0.67 3.35 -0.34 1.7 0 0 Z" transform="translate(89,290)"/><path fill="#F2DCBE" d="M0 0 C0.66 0 1.32 0 2 0 C2 5.28 2 10.56 2 16 C0.02 16 -1.96 16 -4 16 C-3.67 15.01 -3.34 14.02 -3 13 C-2.01 13 -1.02 13 0 13 C0 8.71 0 4.42 0 0 Z" transform="translate(248,275)"/><path fill="#F2DCC2" d="M0 0 C5.28 0 10.56 0 16 0 C16 2.64 16 5.28 16 8 C15.67 8 15.34 8 15 8 C14.67 6.35 14.34 4.7 14 3 C13.31292969 3 12.62585938 3 11.91796875 3 C8.27864583 3 4.63932292 3 1 3 C0.67 2.01 0.34 1.02 0 0 Z" transform="translate(266,147)"/><path fill="#0A0601" d="M0 0 C2.64 0 5.28 0 8 0 C8 0.99 8 1.98 8 3 C6.35 3.33 4.7 3.66 3 4 C3.33 4.99 3.66 5.98 4 7 C2.68 7.33 1.36 7.66 0 8 C0 5.36 0 2.72 0 0 Z" transform="translate(162,315)"/><path fill="#FDF7D7" d="M0 0 C2.64 0 5.28 0 8 0 C7.25 1.9375 7.25 1.9375 6 4 C4.68 4.33 3.36 4.66 2 5 C1.67 8.63 1.34 12.26 1 16 C0.67 16 0.34 16 0 16 C0 10.72 0 5.44 0 0 Z" transform="translate(130,123)"/><path fill="#FBDBAB" d="M0 0 C0.99 0 1.98 0 3 0 C4.60725635 3.21451269 4.05748185 6.43612536 4 10 C2.68 10.33 1.36 10.66 0 11 C0 7.37 0 3.74 0 0 Z" transform="translate(244,278)"/><path fill="#0C0505" d="M0 0 C2.64 0 5.28 0 8 0 C8 2.64 8 5.28 8 8 C6.35 6.35 4.7 4.7 3 3 C2.67 3.66 2.34 4.32 2 5 C1.34 4.34 0.68 3.68 0 3 C0 2.01 0 1.02 0 0 Z M-1 4 C1 5 1 5 1 5 Z" transform="translate(282,243)"/><path fill="#0C0504" d="M0 0 C2.64 0 5.28 0 8 0 C8 2.64 8 5.28 8 8 C7.34 7.67 6.68 7.34 6 7 C5.375 4.4375 5.375 4.4375 5 2 C4.34 2 3.68 2 3 2 C2.67 2.99 2.34 3.98 2 5 C0.68 4.67 -0.64 4.34 -2 4 C-1.34 2.68 -0.68 1.36 0 0 Z" transform="translate(66,203)"/><path fill="#0B0605" d="M0 0 C2.97 0.33 5.94 0.66 9 1 C9 4 9 4 8 6 C4.65626525 5.44271087 1.96687001 4.64826111 -1 3 C-0.67 2.01 -0.34 1.02 0 0 Z" transform="translate(281,106)"/><path fill="#0B0605" d="M0 0 C2.97 0.33 5.94 0.66 9 1 C9 4 9 4 8 6 C4.65626525 5.44271087 1.96687001 4.64826111 -1 3 C-0.67 2.01 -0.34 1.02 0 0 Z" transform="translate(233,90)"/><path fill="#F4F1B0" d="M0 0 C2.64 0 5.28 0 8 0 C8 0.66 8 1.32 8 2 C6.35 2.33 4.7 2.66 3 3 C2.67 3.99 2.34 4.98 2 6 C4.97 6.495 4.97 6.495 8 7 C8 7.33 8 7.66 8 8 C5.36 8 2.72 8 0 8 C0 5.36 0 2.72 0 0 Z" transform="translate(130,43)"/><path fill="#FEFCCD" d="M0 0 C1.50751963 2.39429588 2.00562203 3.76387491 1.9375 6.625 C1 9 1 9 -1.375 10.4375 C-2.24125 10.623125 -3.1075 10.80875 -4 11 C-4.99 10.34 -5.98 9.68 -7 9 C-7 8.34 -7 7.68 -7 7 C-7.99 6.67 -8.98 6.34 -10 6 C-10 5.01 -10 4.02 -10 3 C-9.01 3.33 -8.02 3.66 -7 4 C-6.3125 6.0625 -6.3125 6.0625 -6 8 C-4.35 7.67 -2.7 7.34 -1 7 C-0.67 4.69 -0.34 2.38 0 0 Z" transform="translate(234,274)"/><path fill="#0F0502" d="M0 0 C2.97 0.33 5.94 0.66 9 1 C9 2.65 9 4.3 9 6 C8.443125 5.814375 7.88625 5.62875 7.3125 5.4375 C4.600867 4.92448835 2.65628961 5.3359276 0 6 C0 4.02 0 2.04 0 0 Z" transform="translate(41,178)"/><path fill="#EEDDC5" d="M0 0 C9.57 0 19.14 0 29 0 C29 1.98 29 3.96 29 6 C28.62834717 5.35256836 28.25669434 4.70513672 27.8737793 4.03808594 C26.13870394 1.74930562 26.13870394 1.74930562 23.27270508 1.45410156 C22.19915771 1.4331543 21.12561035 1.41220703 20.01953125 1.390625 C18.85615234 1.35839844 17.69277344 1.32617188 16.49414062 1.29296875 C14.67172852 1.27169922 14.67172852 1.27169922 12.8125 1.25 C11.58595703 1.22035156 10.35941406 1.19070312 9.09570312 1.16015625 C6.06373547 1.08937101 3.03254067 1.03671587 0 1 C0 0.67 0 0.34 0 0 Z" transform="translate(221,131)"/><path fill="#0D0203" d="M0 0 C3.63 0 7.26 0 11 0 C7.89448334 3.10551666 6.10801767 3.81323934 2 5 C1.01 4.01 0.02 3.02 -1 2 C-0.67 1.34 -0.34 0.68 0 0 Z" transform="translate(74,211)"/><path fill="#EFDBC0" d="M0 0 C0.99 0 1.98 0 3 0 C3 2.64 3 5.28 3 8 C-0.96 8 -4.92 8 -9 8 C-5.39338934 6.19669467 -2.91606575 5.53400897 1 5 C0.67 3.35 0.34 1.7 0 0 Z" transform="translate(135,283)"/><path fill="#FEFCCE" d="M0 0 C0.99 0.495 0.99 0.495 2 1 C2.59355614 3.64860427 2.74209269 6.29197322 3 9 C3.804375 8.979375 4.60875 8.95875 5.4375 8.9375 C8 9 8 9 9 10 C9.14115161 12.67058851 9.04247107 15.32432238 9 18 C7 15 7 15 6 12 C5.34515625 11.71382812 4.6903125 11.42765625 4.015625 11.1328125 C2 10 2 10 1.171875 7.6171875 C1.03265625 6.71226562 0.8934375 5.80734375 0.75 4.875 C0.60046875 3.96492187 0.4509375 3.05484375 0.296875 2.1171875 C0.19890625 1.41851562 0.1009375 0.71984375 0 0 Z" transform="translate(184,242)"/><path fill="#FDF4D2" d="M0 0 C0.33 1.32 0.66 2.64 1 4 C5.95 3.67 10.9 3.34 16 3 C18.08954032 7.17908064 18.16552619 7.80410573 17 12 C16.34 11.67 15.68 11.34 15 11 C14.67 9.35 14.34 7.7 14 6 C7.07 5.505 7.07 5.505 0 5 C0 3.35 0 1.7 0 0 Z" transform="translate(249,143)"/><path fill="#100503" d="M0 0 C2.64 0 5.28 0 8 0 C8 1.65 8 3.3 8 5 C5.525 4.01 5.525 4.01 3 3 C2.67 3.66 2.34 4.32 2 5 C0.68 4.67 -0.64 4.34 -2 4 C-1.34 2.68 -0.68 1.36 0 0 Z" transform="translate(186,275)"/><path fill="#EEDDC1" d="M0 0 C0.99 0 1.98 0 3 0 C2.67 5.28 2.34 10.56 2 16 C1.34 16 0.68 16 0 16 C0 10.72 0 5.44 0 0 Z" transform="translate(90,211)"/><path fill="#100503" d="M0 0 C2.64 0 5.28 0 8 0 C8 1.65 8 3.3 8 5 C5.525 4.01 5.525 4.01 3 3 C2.67 3.66 2.34 4.32 2 5 C0.68 4.67 -0.64 4.34 -2 4 C-1.34 2.68 -0.68 1.36 0 0 Z" transform="translate(58,195)"/><path fill="#FBF8D7" d="M0 0 C2.64 0 5.28 0 8 0 C7.34 1.65 6.68 3.3 6 5 C4.68 5 3.36 5 2 5 C1.34 5.99 0.68 6.98 0 8 C0 5.36 0 2.72 0 0 Z" transform="translate(154,91)"/><path fill="#0D0301" d="M0 0 C7.92 0 15.84 0 24 0 C24 0.33 24 0.66 24 1 C23.44014404 1.01458252 22.88028809 1.02916504 22.3034668 1.04418945 C19.76411863 1.11871352 17.22607922 1.21535581 14.6875 1.3125 C13.80642578 1.33505859 12.92535156 1.35761719 12.01757812 1.38085938 C10.74624023 1.4340332 10.74624023 1.4340332 9.44921875 1.48828125 C8.66893311 1.51446533 7.88864746 1.54064941 7.0847168 1.56762695 C4.55078834 2.0931671 3.63072223 3.0408526 2 5 C1.34 3.35 0.68 1.7 0 0 Z" transform="translate(218,299)"/><path fill="#F8DCA9" d="M0 0 C3.3 0.33 6.6 0.66 10 1 C10 1.66 10 2.32 10 3 C6.77208445 5.1519437 5.71599191 5.20086443 2 5 C1.34 3.35 0.68 1.7 0 0 Z" transform="translate(165,77)"/><path fill="#F5DDB3" d="M0 0 C0 1.98 0 3.96 0 6 C-0.268125 5.360625 -0.53625 4.72125 -0.8125 4.0625 C-1.88667752 1.66868314 -1.88667752 1.66868314 -5 1 C-5 3.97 -5 6.94 -5 10 C-6.9955516 6.00889681 -7.19546065 4.30013434 -7 0 C-4.3333581 -1.33332095 -2.83319697 -0.67102033 0 0 Z" transform="translate(297,166)"/><path fill="#F4DBBC" d="M0 0 C0.66 0 1.32 0 2 0 C2.33 2.31 2.66 4.62 3 7 C4.32 6.67 5.64 6.34 7 6 C7 7.65 7 9.3 7 11 C5.35 10.67 3.7 10.34 2 10 C0.68373308 6.38026598 0 3.90432869 0 0 Z" transform="translate(43,168)"/><path fill="#F0DCC1" d="M0 0 C2.64 0 5.28 0 8 0 C7.67 0.99 7.34 1.98 7 3 C6.34 2.67 5.68 2.34 5 2 C4.731875 2.639375 4.46375 3.27875 4.1875 3.9375 C3 6 3 6 0 7 C0 4.69 0 2.38 0 0 Z" transform="translate(122,123)"/><path fill="#F7F893" d="M0 0 C1.65 0 3.3 0 5 0 C5.33 1.65 5.66 3.3 6 5 C4.02 5.33 2.04 5.66 0 6 C0 4.02 0 2.04 0 0 Z" transform="translate(283,100)"/><path fill="#F7F893" d="M0 0 C1.65 0 3.3 0 5 0 C5.33 1.65 5.66 3.3 6 5 C4.02 5.33 2.04 5.66 0 6 C0 4.02 0 2.04 0 0 Z" transform="translate(235,84)"/><path fill="#F8F68F" d="M0 0 C1.32 0 2.64 0 4 0 C4.33 1.98 4.66 3.96 5 6 C3.35 6 1.7 6 0 6 C-1 3 -1 3 0 0 Z" transform="translate(156,300)"/><path fill="#F6F98C" d="M0 0 C1.98 0 3.96 0 6 0 C6 1.32 6 2.64 6 4 C4.125 5.0625 4.125 5.0625 2 6 C1.34 5.67 0.68 5.34 0 5 C0 3.35 0 1.7 0 0 Z" transform="translate(59,100)"/><path fill="#F7F98C" d="M0 0 C1.98 0 3.96 0 6 0 C5.67 1.65 5.34 3.3 5 5 C3.35 4.67 1.7 4.34 0 4 C0 2.68 0 1.36 0 0 Z" transform="translate(115,309)"/><path fill="#F1DEC8" d="M0 0 C2.31 0 4.62 0 7 0 C7 4.62 7 9.24 7 14 C6.67 14 6.34 14 6 14 C5.98582031 13.31292969 5.97164062 12.62585938 5.95703125 11.91796875 C5.81281469 9.19344517 5.60954652 6.66140032 5 4 C2.61012067 1.8613923 2.61012067 1.8613923 0 1 C0 0.67 0 0.34 0 0 Z" transform="translate(203,107)"/><path fill="#F4DBB1" d="M0 0 C1.65 0.33 3.3 0.66 5 1 C5 2.65 5 4.3 5 6 C3.35 6 1.7 6 0 6 C-1.125 2.25 -1.125 2.25 0 0 Z" transform="translate(141,101)"/><path fill="#090605" d="M0 0 C1.67542976 0.28604898 3.34385343 0.61781233 5 1 C5 2.32 5 3.64 5 5 C4.01 5 3.02 5 2 5 C2 4.34 2 3.68 2 3 C1.01 3 0.02 3 -1 3 C-1.33 3.66 -1.66 4.32 -2 5 C-1.125 1.125 -1.125 1.125 0 0 Z" transform="translate(270,307)"/><path fill="#0C0803" d="M0 0 C0 0.66 0 1.32 0 2 C-2.64 2 -5.28 2 -8 2 C-8.33 3.32 -8.66 4.64 -9 6 C-9.33 4.02 -9.66 2.04 -10 0 C-6.7169902 -1.6415049 -3.57454967 -0.51888624 0 0 Z" transform="translate(154,305)"/><path fill="#090605" d="M0 0 C1.67542976 0.28604898 3.34385343 0.61781233 5 1 C5 2.32 5 3.64 5 5 C4.01 5 3.02 5 2 5 C2 4.34 2 3.68 2 3 C1.01 3 0.02 3 -1 3 C-1.33 3.66 -1.66 4.32 -2 5 C-1.125 1.125 -1.125 1.125 0 0 Z" transform="translate(46,275)"/><path fill="#F1DDAF" d="M0 0 C-0.33 1.98 -0.66 3.96 -1 6 C-2.65 6 -4.3 6 -6 6 C-5.67 4.35 -5.34 2.7 -5 1 C-2 0 -2 0 0 0 Z" transform="translate(58,156)"/><path fill="#040210" d="M0 0 C0.66 0 1.32 0 2 0 C2.144375 1.134375 2.28875 2.26875 2.4375 3.4375 C2.61171478 6.80777201 2.61171478 6.80777201 4 8 C3.67 8.99 3.34 9.98 3 11 C1.35 10.01 -0.3 9.02 -2 8 C-1.34 7.67 -0.68 7.34 0 7 C0 4.69 0 2.38 0 0 Z" transform="translate(76,108)"/><path fill="#F1DDC4" d="M0 0 C2.64 0 5.28 0 8 0 C8 1.98 8 3.96 8 6 C7.401875 5.505 6.80375 5.01 6.1875 4.5 C4.02970006 2.71723582 4.02970006 2.71723582 1 3 C0.67 2.01 0.34 1.02 0 0 Z" transform="translate(186,91)"/><path fill="#FBF876" d="M0 0 C0.33 1.32 0.66 2.64 1 4 C-1.64 3.67 -4.28 3.34 -7 3 C-7 2.01 -7 1.02 -7 0 C-3.86650268 -1.04449911 -3.01031744 -0.93423645 0 0 Z" transform="translate(297,235)"/><path fill="#100502" d="M0 0 C0.33 0 0.66 0 1 0 C1 2.64 1 5.28 1 8 C-1.64 8 -4.28 8 -7 8 C-7.33 7.34 -7.66 6.68 -8 6 C-5 5 -5 5 -1 5 C-0.67 3.35 -0.34 1.7 0 0 Z" transform="translate(49,155)"/><path fill="#FDF8D5" d="M0 0 C2.64 0 5.28 0 8 0 C6.68 1.65 5.36 3.3 4 5 C2.68 4.67 1.36 4.34 0 4 C0 2.68 0 1.36 0 0 Z" transform="translate(146,99)"/><path fill="#F5DFB8" d="M0 0 C0 2.64 0 5.28 0 8 C-1.32 7.67 -2.64 7.34 -4 7 C-4 6.01 -4 5.02 -4 4 C-4.66 3.67 -5.32 3.34 -6 3 C-1.125 0 -1.125 0 0 0 Z" transform="translate(154,91)"/><path fill="#090703" d="M0 0 C0.33 0.99 0.66 1.98 1 3 C-1.31 3.66 -3.62 4.32 -6 5 C-6.66 3.68 -7.32 2.36 -8 1 C-5.36 0.67 -2.72 0.34 0 0 Z" transform="translate(122,314)"/><path fill="#F8F986" d="M0 0 C1.65 0 3.3 0 5 0 C5 1.65 5 3.3 5 5 C3.35 5 1.7 5 0 5 C0 3.35 0 1.7 0 0 Z" transform="translate(51,109)"/><path fill="#F0DCC5" d="M0 0 C2.31 0 4.62 0 7 0 C7 2.64 7 5.28 7 8 C6.34 7.67 5.68 7.34 5 7 C4.87625 6.360625 4.7525 5.72125 4.625 5.0625 C4.19060573 2.80148727 4.19060573 2.80148727 1.9375 1.75 C1.298125 1.5025 0.65875 1.255 0 1 C0 0.67 0 0.34 0 0 Z" transform="translate(195,99)"/><path fill="#100500" d="M0 0 C0.66 0 1.32 0 2 0 C1.67 1.32 1.34 2.64 1 4 C1.66 4 2.32 4 3 4 C3.33 4.66 3.66 5.32 4 6 C6.01669827 7.13350534 6.01669827 7.13350534 8 8 C5.36 8 2.72 8 0 8 C0 5.36 0 2.72 0 0 Z" transform="translate(194,91)"/><path fill="#100500" d="M0 0 C0.66 0 1.32 0 2 0 C1.67 1.32 1.34 2.64 1 4 C1.66 4 2.32 4 3 4 C3.33 4.66 3.66 5.32 4 6 C6.01669827 7.13350534 6.01669827 7.13350534 8 8 C5.36 8 2.72 8 0 8 C0 5.36 0 2.72 0 0 Z" transform="translate(178,75)"/><path fill="#090407" d="M0 0 C0.66 0 1.32 0 2 0 C3.76462683 3.08809695 4 4.23312136 4 8 C2.68 7.67 1.36 7.34 0 7 C0 4.69 0 2.38 0 0 Z" transform="translate(170,308)"/><path fill="#030208" d="M0 0 C2 0.25 2 0.25 4 1 C4.33 1.99 4.66 2.98 5 4 C2.69 4.33 0.38 4.66 -2 5 C-1.125 1.125 -1.125 1.125 0 0 Z" transform="translate(157,309)"/><path fill="#F1DEC9" d="M0 0 C0.33 0 0.66 0 1 0 C1.33 2.64 1.66 5.28 2 8 C2.639375 8.12375 3.27875 8.2475 3.9375 8.375 C4.618125 8.58125 5.29875 8.7875 6 9 C6.33 9.66 6.66 10.32 7 11 C4.69 11 2.38 11 0 11 C0 7.37 0 3.74 0 0 Z" transform="translate(90,280)"/><path fill="#F0DDC7" d="M0 0 C0.66 0.33 1.32 0.66 2 1 C2 2.32 2 3.64 2 5 C3.65 5 5.3 5 7 5 C7 5.66 7 6.32 7 7 C4.36 7 1.72 7 -1 7 C-1.04254356 5.00045254 -1.04080783 2.99958364 -1 1 C-0.67 0.67 -0.34 0.34 0 0 Z" transform="translate(187,268)"/><path fill="#F0DDC7" d="M0 0 C0.66 0.33 1.32 0.66 2 1 C2 2.32 2 3.64 2 5 C3.65 5 5.3 5 7 5 C7 5.66 7 6.32 7 7 C4.36 7 1.72 7 -1 7 C-1.04254356 5.00045254 -1.04080783 2.99958364 -1 1 C-0.67 0.67 -0.34 0.34 0 0 Z" transform="translate(59,188)"/><path fill="#F7DCAD" d="M0 0 C1.65 0 3.3 0 5 0 C5 1.65 5 3.3 5 5 C3.35 4.67 1.7 4.34 0 4 C0 2.68 0 1.36 0 0 Z" transform="translate(283,180)"/><path fill="#F7DBAD" d="M0 0 C1.65 0 3.3 0 5 0 C5 1.65 5 3.3 5 5 C3.35 4.67 1.7 4.34 0 4 C0 2.68 0 1.36 0 0 Z" transform="translate(139,276)"/><path fill="#F0D9B1" d="M0 0 C0.99 0 1.98 0 3 0 C3.33 2.64 3.66 5.28 4 8 C1.525 7.01 1.525 7.01 -1 6 C-1.042721 4.33388095 -1.04063832 2.66617115 -1 1 C-0.67 0.67 -0.34 0.34 0 0 Z" transform="translate(182,259)"/><path fill="#F8FA7C" d="M0 0 C0.99 0 1.98 0 3 0 C3 1.98 3 3.96 3 6 C1.68 6 0.36 6 -1 6 C-1.042721 4.33388095 -1.04063832 2.66617115 -1 1 C-0.67 0.67 -0.34 0.34 0 0 Z" transform="translate(294,243)"/><path fill="#F7DBAD" d="M0 0 C1.65 0 3.3 0 5 0 C5 1.65 5 3.3 5 5 C3.35 4.67 1.7 4.34 0 4 C0 2.68 0 1.36 0 0 Z" transform="translate(267,196)"/><path fill="#F0D9B1" d="M0 0 C0.99 0 1.98 0 3 0 C3.33 2.64 3.66 5.28 4 8 C1.525 7.01 1.525 7.01 -1 6 C-1.042721 4.33388095 -1.04063832 2.66617115 -1 1 C-0.67 0.67 -0.34 0.34 0 0 Z" transform="translate(54,179)"/><path fill="#090704" d="M0 0 C2.64 0 5.28 0 8 0 C8.33 0.99 8.66 1.98 9 3 C5.7 3 2.4 3 -1 3 C-0.67 2.01 -0.34 1.02 0 0 Z" transform="translate(57,96)"/><path fill="#F9F88E" d="M0 0 C1.32 0 2.64 0 4 0 C4 1.98 4 3.96 4 6 C2.68 5.67 1.36 5.34 0 5 C0 3.35 0 1.7 0 0 Z" transform="translate(140,348)"/><path fill="#F9F88E" d="M0 0 C1.32 0 2.64 0 4 0 C4 1.98 4 3.96 4 6 C2.68 5.67 1.36 5.34 0 5 C0 3.35 0 1.7 0 0 Z" transform="translate(268,300)"/><path fill="#F3DFB7" d="M0 0 C1.32 0 2.64 0 4 0 C4 2.97 4 5.94 4 9 C2 8 2 8 1.3671875 6.15234375 C1.20476562 5.42144531 1.04234375 4.69054687 0.875 3.9375 C0.70742187 3.20402344 0.53984375 2.47054688 0.3671875 1.71484375 C0.24601562 1.14894531 0.12484375 0.58304687 0 0 Z" transform="translate(94,275)"/><path fill="#F0D9B0" d="M0 0 C0.99 0.33 1.98 0.66 3 1 C3.33 3.31 3.66 5.62 4 8 C1.525 7.01 1.525 7.01 -1 6 C-1.042721 4.33388095 -1.04063832 2.66617115 -1 1 C-0.67 0.67 -0.34 0.34 0 0 Z" transform="translate(198,275)"/><path fill="#F9F88E" d="M0 0 C1.32 0 2.64 0 4 0 C4 1.98 4 3.96 4 6 C2.68 5.67 1.36 5.34 0 5 C0 3.35 0 1.7 0 0 Z" transform="translate(44,268)"/><path fill="#F9F88E" d="M0 0 C1.32 0 2.64 0 4 0 C4 1.98 4 3.96 4 6 C2.68 5.67 1.36 5.34 0 5 C0 3.35 0 1.7 0 0 Z" transform="translate(60,220)"/><path fill="#F0D9B0" d="M0 0 C0.99 0.33 1.98 0.66 3 1 C3.33 3.31 3.66 5.62 4 8 C1.525 7.01 1.525 7.01 -1 6 C-1.042721 4.33388095 -1.04063832 2.66617115 -1 1 C-0.67 0.67 -0.34 0.34 0 0 Z" transform="translate(70,195)"/><path fill="#F2E1B7" d="M0 0 C2.78750144 1.39375072 2.89266287 3.16244861 4 6 C4.66 6.66 5.32 7.32 6 8 C4.02 8 2.04 8 0 8 C0 5.36 0 2.72 0 0 Z" transform="translate(202,115)"/><path fill="#F4F2B7" d="M0 0 C0.33 1.32 0.66 2.64 1 4 C-1.64 4 -4.28 4 -7 4 C-7 3.01 -7 2.02 -7 1 C-5.5459375 1.0309375 -5.5459375 1.0309375 -4.0625 1.0625 C-1.12534105 1.35618499 -1.12534105 1.35618499 0 0 Z" transform="translate(161,319)"/><path fill="#F7F885" d="M0 0 C2.475 0.495 2.475 0.495 5 1 C5 1.99 5 2.98 5 4 C3.68 4.33 2.36 4.66 1 5 C0.67 3.35 0.34 1.7 0 0 Z" transform="translate(147,308)"/><path fill="#F0DCC8" d="M0 0 C1.485 0.99 1.485 0.99 3 2 C5.96842658 2.45915507 5.96842658 2.45915507 9.1875 2.625 C10.27417969 2.69976562 11.36085937 2.77453125 12.48046875 2.8515625 C13.72763672 2.92503906 13.72763672 2.92503906 15 3 C15 3.33 15 3.66 15 4 C10.05 4 5.1 4 0 4 C0 2.68 0 1.36 0 0 Z" transform="translate(202,287)"/><path fill="#110903" d="M0 0 C1.32 0.66 2.64 1.32 4 2 C3.34 2 2.68 2 2 2 C2 4.64 2 7.28 2 10 C0.68 10 -0.64 10 -2 10 C-1.67 9.34 -1.34 8.68 -1 8 C-0.35971613 5.22543655 0 2.85859638 0 0 Z" transform="translate(288,225)"/><path fill="#100501" d="M0 0 C2.64 0 5.28 0 8 0 C8 1.65 8 3.3 8 5 C7.01 4.67 6.02 4.34 5 4 C5 3.34 5 2.68 5 2 C3.35 1.67 1.7 1.34 0 1 C0 0.67 0 0.34 0 0 Z" transform="translate(50,187)"/><path fill="#FFFCCD" d="M0 0 C0.66 0 1.32 0 2 0 C2.75 2.25 2.75 2.25 3 5 C1.0625 7.3125 1.0625 7.3125 -1 9 C-0.67 6.03 -0.34 3.06 0 0 Z" transform="translate(194,118)"/><path fill="#FAF97C" d="M0 0 C2.31 0 4.62 0 7 0 C7 0.99 7 1.98 7 3 C4.69 3 2.38 3 0 3 C0 2.01 0 1.02 0 0 Z" transform="translate(145,46)"/><path fill="#130601" d="M0 0 C2.64 0 5.28 0 8 0 C6 1.33333333 4 2.66666667 2 4 C2 4.66 2 5.32 2 6 C1.34 6 0.68 6 0 6 C0 4.02 0 2.04 0 0 Z" transform="translate(138,283)"/><path fill="#100501" d="M0 0 C2.64 0 5.28 0 8 0 C8 1.32 8 2.64 8 4 C7.01 4 6.02 4 5 4 C5 3.34 5 2.68 5 2 C3.35 1.67 1.7 1.34 0 1 C0 0.67 0 0.34 0 0 Z" transform="translate(194,283)"/><path fill="#F6DDAA" d="M0 0 C1.65 0 3.3 0 5 0 C4.6875 1.9375 4.6875 1.9375 4 4 C3.01 4.33 2.02 4.66 1 5 C0.67 3.35 0.34 1.7 0 0 Z" transform="translate(155,260)"/><path fill="#EEDEC8" d="M0 0 C2.31 0 4.62 0 7 0 C7 1.98 7 3.96 7 6 C6.5875 5.54625 6.175 5.0925 5.75 4.625 C3.93591905 2.94049626 2.24714373 2.00734029 0 1 C0 0.67 0 0.34 0 0 Z" transform="translate(251,227)"/><path fill="#090705" d="M0 0 C0.99 0.33 1.98 0.66 3 1 C3.99 1 4.98 1 6 1 C4.625 3 4.625 3 3 5 C2.34 5 1.68 5 1 5 C0.67 5.66 0.34 6.32 0 7 C-0.38133299 5.0085944 -0.71325582 3.00720923 -1 1 C-0.67 0.67 -0.34 0.34 0 0 Z" transform="translate(258,224)"/><path fill="#130601" d="M0 0 C2.64 0 5.28 0 8 0 C6 1.33333333 4 2.66666667 2 4 C2 4.66 2 5.32 2 6 C1.34 6 0.68 6 0 6 C0 4.02 0 2.04 0 0 Z" transform="translate(266,203)"/><path fill="#F0DFC4" d="M0 0 C2.31 0 4.62 0 7 0 C7 1.98 7 3.96 7 6 C6.5875 5.54625 6.175 5.0925 5.75 4.625 C3.93591905 2.94049626 2.24714373 2.00734029 0 1 C0 0.67 0 0.34 0 0 Z" transform="translate(179,83)"/><path fill="#04020C" d="M0 0 C0.66 0 1.32 0 2 0 C2.66 1.98 3.32 3.96 4 6 C3.01 6.66 2.02 7.32 1 8 C0.40267181 5.23735711 0 2.83967231 0 0 Z" transform="translate(148,33)"/><path fill="#F9F78A" d="M0 0 C1.32 0 2.64 0 4 0 C4 1.32 4 2.64 4 4 C3.01 4.33 2.02 4.66 1 5 C0.34 4.67 -0.32 4.34 -1 4 C-0.67 2.68 -0.34 1.36 0 0 Z" transform="translate(166,309)"/><path fill="#0F0403" d="M0 0 C2.31 0 4.62 0 7 0 C5.35 1.65 3.7 3.3 2 5 C1.01 4.01 0.02 3.02 -1 2 C-0.67 1.34 -0.34 0.68 0 0 Z" transform="translate(202,291)"/><path fill="#100501" d="M0 0 C2.64 0 5.28 0 8 0 C7.67 0.66 7.34 1.32 7 2 C6.34 1.67 5.68 1.34 5 1 C4.34 2.32 3.68 3.64 3 5 C0 1.125 0 1.125 0 0 Z" transform="translate(82,275)"/><path fill="#F8F67D" d="M0 0 C2.38564077 0.57584432 4.66682784 1.22227595 7 2 C6.67 2.99 6.34 3.98 6 5 C4.02 4.34 2.04 3.68 0 3 C0 2.01 0 1.02 0 0 Z" transform="translate(285,237)"/><path fill="#FEFDEF" d="M0 0 C1.32 0.33 2.64 0.66 4 1 C4 2.32 4 3.64 4 5 C2.68 5 1.36 5 0 5 C0 3.35 0 1.7 0 0 Z" transform="translate(164,220)"/><path fill="#120500" d="M0 0 C0.66 0 1.32 0 2 0 C2.185625 1.7015625 2.185625 1.7015625 2.375 3.4375 C2.684375 5.2009375 2.684375 5.2009375 3 7 C3.66 7.33 4.32 7.66 5 8 C3.35 8 1.7 8 0 8 C0 5.36 0 2.72 0 0 Z" transform="translate(186,83)"/><path fill="#FCF5D5" d="M0 0 C0.94875 0.04125 1.8975 0.0825 2.875 0.125 C2.875 1.115 2.875 2.105 2.875 3.125 C0.5625 3.75 0.5625 3.75 -2.125 4.125 C-3.115 3.465 -4.105 2.805 -5.125 2.125 C-3.125 0.125 -3.125 0.125 0 0 Z" transform="translate(95.125,271.875)"/><path fill="#030206" d="M0 0 C0.66 0.33 1.32 0.66 2 1 C1.67 2.65 1.34 4.3 1 6 C-0.32 6 -1.64 6 -3 6 C-1.125 1.125 -1.125 1.125 0 0 Z" transform="translate(62,108)"/><path fill="#0E0302" d="M0 0 C1.3921875 0.2784375 1.3921875 0.2784375 2.8125 0.5625 C3.534375 0.706875 4.25625 0.85125 5 1 C5 1.33 5 1.66 5 2 C1.37 2 -2.26 2 -6 2 C-6.33 1.34 -6.66 0.68 -7 0 C-4.28877166 -1.35561417 -2.92020777 -0.67911809 0 0 Z" transform="translate(168,73)"/><path fill="#0D0803" d="M0 0 C0.33 0.99 0.66 1.98 1 3 C-1.64 3 -4.28 3 -7 3 C-4.49955934 -0.00052879 -4.2621484 0 0 0 Z" transform="translate(145,32)"/><path fill="#FBD7AB" d="M0 0 C2.64 0.33 5.28 0.66 8 1 C7.01 2.485 7.01 2.485 6 4 C4.125 3.6875 4.125 3.6875 2 3 C1.34 2.01 0.68 1.02 0 0 Z" transform="translate(61,149)"/><path fill="#010011" d="M0 0 C2.475 0.495 2.475 0.495 5 1 C4.67 2.65 4.34 4.3 4 6 C0 1.125 0 1.125 0 0 Z" transform="translate(73,122)"/><path fill="#F4F87B" d="M0 0 C2.125 0.9375 2.125 0.9375 4 2 C3.67 2.66 3.34 3.32 3 4 C1.35 4 -0.3 4 -2 4 C-2 3.01 -2 2.02 -2 1 C-1.34 0.67 -0.68 0.34 0 0 Z" transform="translate(62,117)"/><path fill="#07040D" d="M0 0 C3 3.75 3 3.75 3 6 C1.68 6.33 0.36 6.66 -1 7 C-0.67 4.69 -0.34 2.38 0 0 Z" transform="translate(293,101)"/><path fill="#07040D" d="M0 0 C3 3.75 3 3.75 3 6 C1.68 6.33 0.36 6.66 -1 7 C-0.67 4.69 -0.34 2.38 0 0 Z" transform="translate(245,85)"/><path fill="#EFDCAF" d="M0 0 C2.475 0.495 2.475 0.495 5 1 C5 2.65 5 4.3 5 6 C3.68 5.67 2.36 5.34 1 5 C1 4.01 1 3.02 1 2 C0.67 1.34 0.34 0.68 0 0 Z" transform="translate(157,85)"/></svg>