<svg height="1295" viewBox="0 0 1175.289 1294.463" width="1176" xmlns="http://www.w3.org/2000/svg"><path d="m774.048 726.909h401.241v248.442h-401.241z" fill="#ff0098"/><path d="m1.723 0h1173.566v382.367h-1173.566z" fill="#ff0098"/><path d="m1.723 726.909h774.142v248.442h-774.142z" fill="#5c18ef"/><path d="m0 381.335h1175.289v345.573h-1175.289z" fill="#bbf41c"/><path d="m0 975.353h1175.289v319.109h-1175.289z" fill="#bbf41c"/><g fill="#fff"><path d="m140.622 847.902h37.645v62.383c-17.424 12.477-41.302 19.146-63.243 19.146-47.971 0-83.034-32.482-83.034-78.302s35.064-78.302 83.894-78.302c28.18 0 50.983 9.681 65.826 27.535l-27.105 24.523c-10.325-11.401-22.156-16.779-36.569-16.779-25.813 0-43.023 16.995-43.023 43.024 0 25.384 17.21 43.024 42.592 43.024 7.96 0 15.489-1.506 23.018-4.949v-41.302z"/><path d="m347.246 926.419-34.419-48.401c-3.872.43-7.744.645-12.046.645h-72.924v47.755h-15.918v-150.58h88.842c38.29 0 61.523 19.36 61.523 51.628 0 23.662-12.477 40.226-34.418 47.324l36.784 51.628h-17.424zm-.861-98.952c0-24.093-15.918-37.861-46.035-37.861h-72.494v75.506h72.494c30.116 0 46.035-13.983 46.035-37.645z"/><path d="m486.719 894.153h-61.202l-11.675 32.266h-31.261l58.755-150.58h30.13l58.943 150.58h-32.014l-11.675-32.266zm-9.604-26.46-20.903-57.65-20.903 57.65z"/><path d="m745.599 885.762c0 25.813-19.575 40.657-57.651 40.657h-138.347v-150.58h134.044c34.634 0 53.994 14.628 53.994 38.935 0 16.35-8.39 27.75-20.221 33.558 16.994 4.732 28.18 17.424 28.18 37.429zm-174.487-92.499v48.185h110.598c21.941 0 34.418-8.173 34.418-24.092s-12.477-24.093-34.418-24.093zm152.76 90.777c0-17.423-12.907-25.168-36.784-25.168h-115.976v50.122h115.976c23.878 0 36.784-7.53 36.784-24.954z"/><path d="m880.353 777.305h41.764v147.65h-41.764z"/><path d="m1022.982 787.007h-81.359v-9.702h184.234v9.702h-92.117v137.948h-10.758z"/></g><path d="m1059.099 1223.126c0-13.621 10.771-24.392 25.659-24.392 14.572 0 25.026 10.771 25.026 24.392s-10.453 24.709-25.026 24.709c-14.889 0-25.659-11.088-25.659-24.709zm2.218-199.254h46.883l-7.919 148.253h-31.361z"/><path d="m317.359 1134.234c0-64.324 62.866-112.254 173.9-112.254 131.795 0 180.045 47.613 180.045 112.254s-54.431 112.257-180.045 112.257c-112.694 0-173.9-47.929-173.9-112.257zm330.612 0c0-52.658-48.586-91.443-156.712-91.443-96.423 0-150.881 38.785-150.881 91.443s58.775 91.445 150.881 91.445c100.156 0 156.712-38.785 156.712-91.445z"/><path d="m1022.26 1023.872-73.155 220.726h-43.514l-54.551-163.338-55.497 163.338h-43.83l-73.155-220.726h42.568l54.866 167.752 57.073-167.752h37.839l55.813 168.699 56.443-168.699z"/><path d="m283.077 1023.872v220.726h-61.172l-83.877-100.274v100.274h-72.524v-220.726h61.172l83.877 100.272v-100.272z"/><path d="m972.881 95.415h-92.524l8.715-43.759h236.781l-9.085 43.759h-92.524l-46.726 235.112h-51.732z" fill="#5c18ef"/><path d="m569.408 217.05c0-91.597 65.453-167.805 168.176-167.805 82.512 0 129.608 47.096 129.608 116.073 0 91.597-65.824 167.805-168.546 167.805-82.513-.186-129.238-47.096-129.238-116.073zm268.301-50.62c0-54.142-35.415-90.856-102.908-90.856-82.883 0-136.283 64.155-136.283 139.992 0 54.699 35.415 91.226 102.908 91.226 82.883-.186 136.283-64.341 136.283-140.363z" fill="#5c18ef"/><path d="m554.574 51.655-55.811 279.056h-94.008l20.767-102.908h-259.588l-20.767 102.908h-94.008l55.811-279.056h94.008l-19.84 98.829h259.587l19.84-98.829h94.008z" fill="#5c18ef"/><path d="m843.706 619.762h-122.994l-35.257 56.541h-48.58l158.9-244.525h45.006l60.766 244.525h-45.006zm-8.449-35.582-24.858-107.558-67.427 107.558h92.286z"/><path d="m86.896 431.941h95.698c74.089 0 116.982 39.482 116.982 100.247 0 86.274-60.766 144.278-152.24 144.278h-109.345zm61.579 213.98c71.976 0 116.007-47.118 116.007-111.783 0-44.031-28.271-71.977-85.299-71.977h-63.528l-36.72 183.76z"/><path d="m420.782 494.006-5.524 28.596h203.581l-11.86 59.303h-203.906l-6.336 32.17h222.754l-12.511 62.228h-303.341l48.905-244.525h298.792l-12.511 62.228h-218.041z"/><path d="m980.51 431.941h82.375l-35.907 180.51h110.32l-12.998 63.853h-192.858z"/><path d="m718.3 240.345c-.854 0-1.547-.693-1.547-1.547 0-9.652-4.014-27.63-11.271-34.888s-25.235-11.271-34.888-11.271c-.854 0-1.547-.693-1.547-1.547s.693-1.547 1.547-1.547c9.652 0 27.63-4.014 34.888-11.271 7.258-7.258 11.271-25.236 11.271-34.888 0-.854.693-1.547 1.547-1.547s1.547.693 1.547 1.547c0 9.652 4.014 27.63 11.271 34.888s25.236 11.271 34.888 11.271c.854 0 1.547.693 1.547 1.547s-.693 1.547-1.547 1.547c-9.652 0-27.631 4.014-34.888 11.271-7.258 7.257-11.271 25.235-11.271 34.888 0 .854-.693 1.547-1.547 1.547zm-34.459-49.254c9.008 1.888 18.677 5.479 23.828 10.63 5.152 5.152 8.742 14.82 10.63 23.829 1.888-9.008 5.479-18.677 10.63-23.829s14.82-8.742 23.829-10.63c-9.007-1.888-18.677-5.479-23.829-10.63-5.152-5.152-8.742-14.821-10.63-23.829-1.888 9.008-5.479 18.677-10.63 23.829-5.151 5.151-14.821 8.742-23.828 10.63z" fill="#fff"/><path d="m504.201 1183.489c-.854 0-1.547-.693-1.547-1.547 0-9.653-4.014-27.631-11.271-34.888-7.257-7.258-25.235-11.272-34.888-11.272-.854 0-1.547-.693-1.547-1.547s.693-1.547 1.547-1.547c9.653 0 27.631-4.014 34.888-11.271 7.258-7.257 11.271-25.235 11.271-34.888 0-.854.693-1.547 1.547-1.547s1.547.693 1.547 1.547c0 9.652 4.014 27.63 11.271 34.888s25.236 11.271 34.888 11.271c.854 0 1.547.693 1.547 1.547s-.693 1.547-1.547 1.547c-9.652 0-27.63 4.014-34.888 11.272-7.258 7.257-11.271 25.235-11.271 34.888 0 .854-.693 1.547-1.547 1.547zm-34.459-49.254c9.008 1.888 18.677 5.479 23.829 10.631s8.742 14.82 10.63 23.828c1.888-9.007 5.479-18.677 10.63-23.828 5.152-5.152 14.821-8.743 23.829-10.631-9.009-1.888-18.677-5.479-23.829-10.63s-8.742-14.821-10.63-23.828c-1.888 9.008-5.479 18.677-10.63 23.828-5.152 5.152-14.82 8.742-23.829 10.63z" fill="#ff0098"/></svg>