<?xml version="1.0" encoding="UTF-8"?>
<svg id="Layer_3" data-name="Layer 3" xmlns="http://www.w3.org/2000/svg" xmlns:xlink="http://www.w3.org/1999/xlink" viewBox="0 0 1584.508 1188.184">
  <defs>
    <linearGradient id="linear-gradient" x1="1360.655" y1="432.729" x2="1357.716" y2="-61.902" gradientUnits="userSpaceOnUse">
      <stop offset=".131" stop-color="#1c7e8e"/>
      <stop offset="1" stop-color="#fff9e9"/>
    </linearGradient>
    <linearGradient id="linear-gradient-2" x1="388.373" y1="1039.47" x2="113.479" y2="745.129" gradientUnits="userSpaceOnUse">
      <stop offset="0" stop-color="#c7e2cd"/>
      <stop offset=".897" stop-color="#fff9e9"/>
    </linearGradient>
  </defs>
  <path d="M1353.9,498.919c-15.435,0-30.972-1.552-46.443-4.693-60.471-12.278-112.541-47.37-146.618-98.812-6.673-10.074-15.216-18.313-25.391-24.49l77.84-128.223c29.206,17.73,53.632,41.238,72.601,69.871,24.668,37.239,75.034,47.467,112.275,22.8,18.039-11.95,30.345-30.209,34.65-51.415,4.307-21.205.097-42.818-11.854-60.857l-88.771-134.008L1363.136,0l94.127,6.153,88.748,134.108c34.077,51.441,46.082,113.074,33.803,173.546-12.278,60.47-47.371,112.539-98.812,146.616-38.28,25.358-82.214,38.496-127.102,38.496Z" style="fill: url(#linear-gradient);"/>
  <path d="M988.065,669.273c-37.539,0-69.949-28.127-74.401-66.322-1.473-12.626-5.829-24.478-12.948-35.226l-.822-1.241-.772-1.273c-18-29.668-29.645-60.762-34.608-92.416-4.81-30.67-3.298-61.227,4.493-90.823,14.261-54.175,48.777-101.668,97.191-133.73,48.413-32.062,105.611-45.312,161.055-37.308,30.29,4.373,59.014,14.9,85.373,31.291,27.21,16.919,51.293,39.769,71.581,67.914,24.221,33.602,16.615,80.477-16.986,104.697-33.601,24.221-80.476,16.616-104.697-16.986-46.307-64.242-102.672-31.721-113.501-24.548-10.771,7.134-62.225,45.979-22.272,113.081,19.402,29.794,31.809,64.055,35.905,99.199,4.797,41.143-24.667,78.384-65.811,83.18-2.947.344-5.881.512-8.778.512Z" style="fill: #3ade9e;"/>
  <path d="M833.656,843.546c-15.435,0-30.973-1.551-46.444-4.693-60.471-12.278-112.54-47.371-146.617-98.812-9.862-14.888-23.94-25.854-40.714-31.712-39.104-13.657-59.734-56.43-46.076-95.535,13.657-39.105,51.309-53.357,90.416-39.698,47.975,16.755,93.311,41.666,121.425,84.107,11.95,18.04,30.21,30.346,51.416,34.651,21.203,4.308,42.817.097,60.856-11.854,18.04-11.95,30.347-30.21,34.652-51.415s.096-42.819-11.854-60.858c-22.875-34.532-13.426-81.069,21.106-103.944s81.07-13.426,103.944,21.106c34.077,51.442,46.082,113.075,33.803,173.545-12.279,60.472-47.371,112.541-98.813,146.617-38.279,25.358-82.212,38.496-127.101,38.496Z" style="fill: #ff593b;"/>
  <path d="M467.277,1009.729c-36.682,0-68.75-26.937-74.139-64.306-1.706-11.83-5.968-22.957-12.666-33.069l-.823-1.242-.772-1.273c-17.827-29.383-29.458-60.13-34.567-91.385-4.969-30.392-3.727-60.674,3.693-90.008,13.615-53.832,47.379-101.206,95.071-133.394,48.13-32.482,105.424-46.21,161.32-38.654,30.378,4.106,59.29,14.327,85.933,30.378,27.546,16.595,52.06,39.115,72.859,66.935,24.804,33.175,18.019,80.175-15.155,104.978-13.474,10.074-29.232,14.937-44.854,14.938-22.842,0-45.395-10.394-60.125-30.094-48.469-64.828-105.188-31.488-116.065-24.146-10.397,7.017-60.013,45.239-20.485,111.618,18.482,28.357,30.289,59.64,35.102,93.011,5.911,40.997-22.531,79.024-63.528,84.937-3.628.523-7.236.777-10.798.777Z" style="fill: #f991b9;"/>
  <path d="M505.523,829.516c-22.873-34.532-69.412-43.981-103.944-21.106s-43.981,69.412-21.106,103.944c24.668,37.239,14.44,87.605-22.798,112.273-.02.013-.041.026-.061.039-1.055.698-2.123,1.362-3.198,2.003-.135.081-.269.165-.404.244-1.058.623-2.125,1.216-3.201,1.786-.155.083-.31.166-.466.247-1.1.574-2.207,1.121-3.323,1.64-.098.045-.197.09-.295.136-35.64,16.381-79.003,4.806-101.326-28.891l-120.351-181.68-29.811,90.805-95.24-7.967,120.351,181.68c30.311,45.758,74.865,78.563,126.898,93.9.143.042.286.084.428.126,1.228.359,2.458.714,3.695,1.054.992.274,1.985.536,2.979.797.513.134,1.023.276,1.538.407,18.939,4.839,38.178,7.232,57.314,7.232,2.855,0,5.708-.055,8.556-.161,40.264-1.464,79.517-13.524,114.341-35.499,1.478-.932,2.951-1.876,4.413-2.845,51.441-34.077,86.534-86.147,98.812-146.618,12.279-60.47.274-122.104-33.803-173.545Z" style="fill: url(#linear-gradient-2);"/>
  <g>
    <path d="M108.651,936.195c-1.621,0-3.21-.787-4.173-2.239l-13.806-20.842c-1.525-2.302-.895-5.405,1.407-6.93,2.301-1.524,5.404-.895,6.93,1.407l13.806,20.842c1.525,2.302.895,5.405-1.407,6.93-.85.563-1.809.832-2.757.832Z" style="fill: #fff9e9;"/>
    <path d="M313.081,1118.119c-12.607,0-25.228-1.484-37.511-4.412-2.687-.64-4.345-3.337-3.705-6.023.641-2.686,3.341-4.344,6.023-3.704,15.801,3.766,32.257,4.978,48.384,3.562,2.744-.242,5.176,1.793,5.418,4.544.241,2.751-1.793,5.176-4.544,5.418-4.654.408-9.387.615-14.066.615ZM375.27,1105.139c-1.927,0-3.763-1.12-4.584-2.999-1.106-2.53.049-5.478,2.579-6.584,7.982-3.49,15.744-7.719,23.068-12.571,6.238-4.132,12.201-8.745,17.723-13.709,2.053-1.846,5.215-1.678,7.061.376,1.846,2.054,1.678,5.215-.375,7.061-5.886,5.292-12.24,10.207-18.886,14.609-7.805,5.17-16.077,9.678-24.585,13.397-.652.285-1.332.42-2,.42ZM230.463,1094.569c-.901,0-1.813-.244-2.635-.754-14.751-9.171-27.852-20.628-38.937-34.053-1.758-2.129-1.458-5.281.672-7.039,2.129-1.758,5.281-1.458,7.039.672,10.394,12.587,22.676,23.329,36.505,31.927,2.345,1.458,3.064,4.541,1.606,6.886-.947,1.523-2.58,2.361-4.251,2.361ZM448.757,1038.911c-.833,0-1.677-.208-2.454-.647-2.405-1.358-3.253-4.407-1.896-6.812,8.002-14.176,13.642-29.493,16.761-45.527.527-2.711,3.152-4.479,5.863-3.953,2.71.527,4.48,3.152,3.953,5.863-3.325,17.091-9.337,33.419-17.869,48.533-.919,1.628-2.614,2.543-4.358,2.543ZM164.247,1020.122c-1.621,0-3.21-.787-4.173-2.239l-27.798-41.964c-1.525-2.302-.895-5.405,1.407-6.93,2.302-1.525,5.404-.895,6.93,1.407l27.798,41.964c1.525,2.302.895,5.405-1.407,6.929-.85.563-1.809.832-2.757.832ZM467.649,941.791c-2.474,0-4.623-1.835-4.952-4.354-2.108-16.158-6.807-31.783-13.965-46.441-1.212-2.481-.183-5.475,2.298-6.687,2.482-1.212,5.476-.182,6.687,2.299,7.635,15.634,12.647,32.3,14.896,49.536.357,2.738-1.573,5.248-4.311,5.605-.22.029-.438.042-.653.042ZM429.008,849.752c-1.957,0-3.814-1.156-4.616-3.074-6.698-16.037-10.72-32.97-11.954-50.33-.196-2.754,1.878-5.146,4.632-5.342,2.763-.201,5.146,1.878,5.342,4.633,1.158,16.276,4.928,32.151,11.207,47.185,1.064,2.548-.139,5.477-2.687,6.541-.629.263-1.283.387-1.925.387ZM833.326,773.491c-3.566,0-7.18-.12-10.741-.358-2.755-.184-4.84-2.566-4.656-5.321.184-2.755,2.564-4.842,5.321-4.656,16.235,1.083,32.618-.474,48.287-4.59,2.672-.701,5.405.896,6.106,3.566.702,2.671-.895,5.405-3.566,6.106-13.274,3.486-26.984,5.253-40.751,5.253ZM774.086,761.866c-.629,0-1.269-.119-1.888-.372-16.128-6.583-30.972-15.668-44.119-27.003-2.091-1.803-2.325-4.96-.522-7.052,1.803-2.091,4.96-2.325,7.052-.522,12.325,10.627,26.244,19.145,41.368,25.319,2.557,1.043,3.783,3.962,2.74,6.519-.792,1.938-2.66,3.112-4.631,3.112ZM421.928,751.08c-.411,0-.827-.051-1.243-.157-2.675-.684-4.29-3.407-3.605-6.083,4.315-16.875,11.27-32.823,20.671-47.404,1.496-2.32,4.59-2.99,6.912-1.493,2.321,1.496,2.989,4.591,1.493,6.912-8.816,13.674-15.339,28.633-19.387,44.462-.578,2.26-2.611,3.762-4.84,3.762ZM918.592,748.02c-1.63,0-3.228-.796-4.187-2.261-1.513-2.31-.867-5.409,1.443-6.922l.73-.481c13.41-8.883,25.22-19.723,35.101-32.218,1.712-2.166,4.856-2.534,7.023-.821,2.166,1.713,2.533,4.857.82,7.023-10.538,13.325-23.129,24.883-37.423,34.352l-.772.509c-.845.553-1.795.818-2.735.818ZM698.853,697.492c-1.54,0-3.058-.708-4.038-2.046-9.664-13.193-21.294-24.638-34.569-34.016-2.256-1.593-2.792-4.713-1.199-6.969,1.593-2.255,4.711-2.793,6.969-1.199,14.159,10.003,26.562,22.208,36.866,36.275,1.632,2.228,1.148,5.357-1.079,6.988-.891.652-1.925.967-2.951.967ZM979.934,670.432c-.562,0-1.134-.096-1.693-.297-2.598-.935-3.946-3.8-3.011-6.398,5.525-15.345,8.53-31.39,8.932-47.689.068-2.76,2.346-4.929,5.122-4.875,2.76.068,4.943,2.361,4.875,5.122-.429,17.373-3.631,34.475-9.521,50.83-.734,2.039-2.656,3.308-4.705,3.308ZM475.562,667.976c-1.469,0-2.923-.644-3.911-1.88-1.723-2.158-1.371-5.304.787-7.027,3.747-2.992,7.684-5.859,11.702-8.52,10.455-6.926,21.667-12.617,33.327-16.916,2.591-.954,5.466.37,6.421,2.962.955,2.591-.371,5.466-2.961,6.421-10.935,4.032-21.453,9.372-31.264,15.87-3.772,2.498-7.467,5.189-10.984,7.998-.921.736-2.023,1.093-3.117,1.093ZM618.085,640.404c-.477,0-.962-.069-1.442-.213-15.598-4.692-31.799-6.844-48.098-6.376-2.758.088-5.062-2.093-5.142-4.854s2.093-5.062,4.854-5.142c1.542-.045,3.109-.067,4.657-.068,15.791,0,31.472,2.309,46.61,6.863,2.644.796,4.143,3.584,3.348,6.229-.651,2.164-2.637,3.561-4.786,3.561ZM982.315,571.529c-2.136,0-4.113-1.379-4.776-3.527-4.237-13.733-10.449-26.833-18.465-38.933-1.076-1.623-2.133-3.282-3.142-4.931-1.441-2.355-.701-5.433,1.654-6.875,2.356-1.442,5.433-.701,6.875,1.654.945,1.545,1.938,3.102,2.949,4.629,8.543,12.896,15.167,26.862,19.685,41.508.814,2.639-.665,5.438-3.304,6.252-.491.151-.988.223-1.476.223ZM941.221,480.143c-2.278,0-4.336-1.566-4.869-3.881-2.704-11.762-4.075-23.863-4.075-35.967,0-5.2.256-10.466.76-15.651.268-2.749,2.717-4.761,5.461-4.492,2.748.267,4.759,2.712,4.492,5.461-.474,4.865-.713,9.805-.713,14.683,0,11.351,1.286,22.698,3.821,33.726.619,2.691-1.061,5.375-3.752,5.993-.377.086-.754.128-1.125.128ZM1369.377,428.059c-2.534,0-4.706-1.918-4.968-4.493-.28-2.747,1.72-5.201,4.467-5.481,16.223-1.654,31.974-5.91,46.817-12.649,2.514-1.142,5.478-.029,6.62,2.486,1.142,2.514.029,5.478-2.485,6.62-15.833,7.188-32.634,11.728-49.938,13.492-.172.018-.343.026-.513.026ZM1319.36,425.081c-.362,0-.729-.039-1.096-.122-16.996-3.801-33.15-10.268-48.015-19.22-2.365-1.425-3.128-4.497-1.704-6.863,1.424-2.365,4.497-3.129,6.863-1.704,13.941,8.396,29.095,14.461,45.039,18.027,2.695.603,4.391,3.276,3.788,5.971-.521,2.327-2.585,3.91-4.875,3.91ZM1459.509,387.261c-1.345,0-2.687-.54-3.672-1.605-1.875-2.027-1.751-5.191.276-7.066,11.968-11.068,21.999-23.937,29.814-38.249,1.323-2.424,4.361-3.316,6.784-1.992,2.424,1.323,3.316,4.361,1.992,6.785-8.335,15.266-19.035,28.993-31.8,40.799-.962.889-2.18,1.329-3.394,1.329ZM950.771,381.666c-.678,0-1.367-.139-2.027-.432-2.523-1.121-3.66-4.076-2.539-6.599,7.07-15.912,16.605-30.467,28.34-43.261,1.867-2.035,5.03-2.172,7.064-.305,2.035,1.867,2.171,5.03.305,7.064-11.002,11.994-19.942,25.641-26.571,40.561-.828,1.864-2.656,2.971-4.572,2.971ZM1234.646,374.003c-1.417,0-2.824-.599-3.813-1.763-4.155-4.89-8.07-10.1-11.637-15.486-5.639-8.513-12.128-16.454-19.29-23.604-1.954-1.951-1.957-5.117-.006-7.071s5.117-1.957,7.071-.006c7.635,7.623,14.553,16.088,20.562,25.158,3.349,5.055,7.023,9.945,10.921,14.534,1.788,2.104,1.531,5.26-.573,7.048-.94.799-2.091,1.189-3.235,1.189ZM1017.597,308.735c-1.756,0-3.459-.927-4.374-2.57-1.343-2.413-.475-5.458,1.938-6.8,15.226-8.472,31.598-14.374,48.663-17.544,2.718-.502,5.325,1.288,5.829,4.003.504,2.715-1.288,5.325-4.003,5.829-15.998,2.971-31.349,8.506-45.626,16.45-.77.428-1.604.632-2.427.632ZM1162.723,305.411c-.746,0-1.503-.167-2.217-.521-14.591-7.232-30.188-12.045-46.357-14.305-2.734-.382-4.642-2.909-4.259-5.644.382-2.735,2.909-4.643,5.644-4.26,17.233,2.409,33.859,7.539,49.414,15.249,2.474,1.226,3.485,4.226,2.259,6.7-.873,1.76-2.644,2.781-4.484,2.781ZM1506.974,300.47c-.294,0-.592-.026-.892-.08-2.718-.49-4.524-3.089-4.035-5.807,1.595-8.859,2.404-17.906,2.404-26.89,0-7.218-.523-14.49-1.556-21.615-.396-2.733,1.498-5.27,4.231-5.666,2.734-.394,5.27,1.498,5.666,4.231,1.102,7.598,1.66,15.353,1.66,23.05,0,9.577-.862,19.22-2.562,28.663-.436,2.418-2.542,4.115-4.915,4.115ZM1492.742,202.582c-1.826,0-3.585-1.003-4.465-2.744-2.664-5.266-5.678-10.446-8.958-15.397l-17.488-26.749c-1.511-2.311-.862-5.41,1.449-6.921,2.31-1.511,5.409-.863,6.921,1.449l17.472,26.723c3.478,5.249,6.688,10.769,9.527,16.381,1.247,2.464.26,5.472-2.204,6.719-.724.366-1.495.54-2.253.54ZM1438.475,117.826c-1.631,0-3.23-.797-4.19-2.264l-27.545-42.131c-1.511-2.311-.862-5.41,1.449-6.921,2.312-1.511,5.41-.862,6.921,1.449l27.545,42.131c1.511,2.311.862,5.41-1.449,6.921-.844.552-1.793.815-2.731.815Z" style="fill: #fff9e9;"/>
    <path d="M1383.141,33.19c-1.632,0-3.23-.797-4.19-2.264l-13.68-20.925c-1.511-2.311-.862-5.41,1.449-6.921s5.41-.862,6.921,1.449l13.68,20.925c1.511,2.311.862,5.41-1.449,6.921-.844.552-1.793.815-2.731.815Z" style="fill: #fff9e9;"/>
  </g>
</svg>